<?xml version="1.0" encoding="utf-8"?>
<!-- Generator: Adobe Illustrator 24.2.3, SVG Export Plug-In . SVG Version: 6.00 Build 0)  -->
<svg version="1.1" id="Layer_1" xmlns="http://www.w3.org/2000/svg" xmlns:xlink="http://www.w3.org/1999/xlink" x="0px" y="0px"
	 viewBox="0 0 1708.41 3092.93" style="enable-background:new 0 0 1708.41 3092.93;" xml:space="preserve">
<style type="text/css">
	.st0{fill:#363A51;}
</style>
<path class="st0" d="M1431.38,2257.62c-12.97-90.26-39.4-211.27-77.2-319.69c-37.44-107.36-98.25-236.43-175.34-241.63
	c-7.21-0.49-17.69-0.07-29.06,0.48c-18.02-18.85-35.28-33.36-49.37-42.93c-1.03-0.7-2.08-1.4-3.16-2.1
	c-9.02-48.06-13.08-114.05,2.66-193.84c3.15-15.96,7-31.7,11.56-47.18c7.54,14.37,17.07,25.82,23.17,24.32
	c3.98-0.98,3.42-5.98,2.2-16.93c-0.94-8.44-2.9-26,1.13-28.05c3.32-1.68,13.36,7.74,19.36,13.37c8.93,8.38,15.99,14.99,21.24,11.86
	c6.05-3.62,2.73-16.13-3.04-34.8c-0.17-0.55-0.34-1.11-0.52-1.67c5.78,9.49,14.01,24.4,20.62,36.4
	c5.75,10.43,11.18,20.27,15.49,27.62c6.76,11.53,8.87,14.24,12.01,12.8c2.99-1.38,1.85-5,0.85-8.2c-0.9-2.87-2.37-6.96-4.23-12.13
	c-4.87-13.58-12.24-34.11-19.36-60.03c-2.54-9.25-4.71-17.95-6.5-25.73c16.8,55.46,27.66,83.99,38.23,83.99
	c0.28,0,0.55-0.02,0.83-0.06c5.8-0.82,9.32-9.16,11.39-27.04c0.7-5.99,1.18-12.88,1.43-20.05c6.94,9.2,14.21,14.57,20.45,17.7
	c14.84,7.44,35.41,8.08,53.69,1.66c14.22-4.99,25.01-13.58,29.6-23.57c2.57-5.59,3.47-12.04,2.69-19.29
	c10.34,16.35,13.27,17.75,16.24,16.49c3.43-1.46,3.87-5.76-2.54-27.36c-3.67-12.35-8.45-26.33-11.01-33.84l-1.08-3.15
	c-14.1-41.6-21.21-85.51-24.15-127.45c14.31-65.15,28.17-134.31,33.91-224.86c3.5-55.3,2.66-97.69-1.06-144.27
	c18.94-11.08,35.07-30.36,43.54-48.45c0.63-1.35,15.41-33.61,12.76-89.59c-0.11-2.39-0.01-4.79,0.1-7.33
	c0.15-3.43,0.3-6.98-0.12-10.56c-0.06-0.5-0.12-0.98-0.18-1.46c-0.37-2.92-0.57-4.75,0.18-5.59c0.38-0.43,0.89-0.5,2.59-0.52
	c1.6-0.02,3.58-0.05,5.59-1.12c3.75-1.99,6.32-7.13,7.04-14.09c1.09-10.38-1.98-24.35-11.29-32.16c-4.78-4-9.81-5.2-12-5.72
	c-4.83-1.15-9.41-2.25-13.71-3.31c-3.17-2.49-6.63-4.9-10.31-7.24c-0.03-5.85-0.15-12.04-0.37-18.52
	c-2.22-64.3-14.09-130.53-34.33-191.52c-34.66-104.46-72.93-159.43-113.77-163.42c-6.76-10.22-14.62-19.65-23.37-28.05
	c-49.53-47.56-119.51-52.98-187.76-51.77c-98.59,1.76-200.54,3.57-327.42,59.84c-53.88,23.89-180.04,79.85-274.89,215.36
	c-29.18,41.69-68.65,110.85-91.01,203.63c-17.88,74.19-21.69,150.2-11.33,225.92c0.89,25.13,0.69,50.7-0.58,76.01
	c-3.27,65.12-12.41,108.22-21.26,149.89c-2.23,10.49-4.33,20.41-6.32,30.59c-0.85,4.34-1.74,8.82-2.66,13.44
	c-16.64,83.71-41.78,210.21,15.88,342.38c11.13,25.5,24.89,50.14,40.91,73.24l1.47,2.11l2.31-1.12
	c58.58-28.48,118.65-43.54,178.55-44.77c30.11-0.61,121.74-2.5,134.39,34.6c4.2,12.3-0.9,28.54-14.75,47.23
	c-4.34-33.29-10.38-48.66-19.36-49.56c-12.15-1.23-22.75,22.72-32.61,47.34c-1.03,2.57-1.91,4.78-2.66,6.55
	c-12.93,30.59-36.6,49.71-66.77,63.89c-56.92-0.81-115.58,15.47-169.63,47.12c-8.86,5.19-17.51,10.76-25.92,16.67
	c-39.2,16.23-78,38.44-113.03,72.46c-5.85,5.69-57.67,57.51-73.95,125.11c-5.53,22.98-6.64,46.5-3.2,68.03
	c0.48,3,0.96,5.86,1.45,8.58c-3.29,26.52-3.12,52.85-2.94,79.91c0.51,77.61,14.38,143.83,25.93,185.71
	c13.9,50.39,29.24,83.12,37.21,89.41c1.69,1.33,3.34,1.81,4.93,1.45c6.16-1.43,4.27-10.14-1.35-36
	c-10.5-48.32-32.34-148.85-8.46-268.17c11.15-55.71,27.74-106.47,49.32-150.88c18.43-37.93,40.13-70.21,64.49-95.96
	c8.01-8.47,16.34-16.25,24.96-23.34c4.14-1.19,8.88-2.54,14.08-4c12.93-3.64,27.17-8.36,43.53-14.43
	c29.89-11.09,54.88-22.59,76.33-34.01c34.93-1.9,77.93,3.2,127.51,23.39l0.25,0.1c228.24,92.94,265.86,413.24,271.97,522.3
	c-48.3-0.4-93.87,3.78-134.33,36.24c-58.63,47.04-80.9,132.5-87.25,214.47c-14.83,33.29-29.34,71.32-39.49,108.71
	c-8.85,32.61-13.22,60.6-12.98,83.19c0.28,26.29,6.88,45.12,19.6,55.97c11.43,9.75,25.67,11.13,39.43,12.47
	c4.18,0.41,8.39,0.81,12.58,1.46c8.85,44.4,18.91,80.31,26.88,101.89c9.89,26.77,14.59,26.63,16.87,26.55
	c2.94-0.09,5.41-2.72,7.77-8.28c7.9-18.55,15.33-75.82-13.2-107.46c-10.02-11.11-21.64-15.64-33.16-17.9
	c-4.87-25.02-9.05-51.12-12.3-77c-5.88-46.99-11.03-112.52-6.13-178.02c10.54-23.59,21.22-44.74,30.57-61.49
	c25.08-44.92,37.39-53.8,40.02-53.46c1.87,1.99,2.99,11.98,3.78,27.06c-9.52,19.74-17.21,40.89-21.61,59.94
	c-8.18,35.41-4.91,62.3,9.45,77.76c4.49,4.83,10.15,8.8,16.56,11.81c3.25,51.36,7.18,92.38,9.56,115.05
	c2.22,21.17,4.46,39.48,6.48,52.93c3.16,21.12,4.54,22.36,5.55,23.26c0.68,0.61,1.54,0.91,2.41,0.85c3.69-0.24,3.73-4.61,3.79-12.56
	c0.05-6.24-0.12-15.31-0.33-26.8c-0.34-18.21-0.8-43.16-0.65-72.24c0.14-26.58,0.76-51.12,1.7-73.68
	c10.55,0.48,21.42-1.04,31.47-4.79c40.65-15.17,67.06-67.59,78.5-155.82c4.03-31.04,8.14-82.67,4.88-152.34
	c-0.03-0.57-0.05-1.14-0.08-1.71c7.05,0.12,14.22,0.31,21.5,0.5c67.54,1.78,144.08,3.79,224.98-54.42
	c10.58-7.61,38.14-28.95,65.65-62.61c30.34-37.14,51.09-77.09,61.92-119.12c11.14,16.63,21.87,34.11,32.13,52.36
	c52.27,92.97,83.41,189.35,104.02,253.13c7.82,24.2,13.86,42.65,19.06,55.87c-7.84,31.45-14.91,74.42-0.49,81.04
	c6.68,3.07,14-3,20.45-8.34c3.81-3.16,9-7.45,11.23-6.86c-14.1,67.25-46.87,123.88-75.93,163.55c8.38-22.38,14.62-48.03,16.51-79.81
	c0.92-15.56,2.76-66.6-12.37-69.9c-13.97-3.06-29.44,32.85-55.59,96.55c-11.46,27.92-23.31,56.79-34.39,78.15
	c-14.62,28.18-22.74,33.14-26.99,32.33c-10.49-1.99-15.48-29.14-19.48-50.96c-4.3-23.42-7.69-41.92-17.61-42.59
	c-0.17-0.01-0.34-0.02-0.51-0.02c-16.89,0-35.23,56.45-38.76,67.86c-13.67,44.15-22.34,100.01-1.79,112.13
	c12.98,7.65,35.59-0.86,52.27-9.34c28.75-14.62,71.23-45.84,112.71-92.63c-3.14,5.85-6.33,11.58-9.5,17.29
	c-17.38,31.25-33.8,60.77-37.82,101.69c-4.53,46.09,10.25,86.74,23.44,112.73c15.71,30.94,34.34,51.96,43.03,58.55
	c2.43,1.84,4.27,2.71,5.82,2.71c0.5,0,0.97-0.09,1.43-0.27c4.23-1.65,2.59-6.42-1.79-19.17c-8.08-23.53-24.91-72.5-17.75-133.57
	c3.07-26.24,8.36-38.85,21.12-69.32c5.6-13.36,12.56-30,21.37-52.61c20.6-52.94,38.73-106.93,49.74-148.14
	c13.86-51.9,13.19-70.15,9.36-77c2.21-11.02,3.92-22.32,5.05-33.87C1456.14,2355.31,1447.27,2304.52,1431.38,2257.62z
	 M703.92,2777.28c18.96,21.02,21.22,56.38,17.02,82.46c-2.19,13.59-5.63,21.24-7.35,23.02c-2.72-2.29-10.96-16.42-23.17-61.36
	c-5.02-18.5-9.72-38.65-13.94-59.64C686.25,2763.97,695.68,2768.15,703.92,2777.28z M668.84,2754.32c-3.65-0.5-7.27-0.85-10.78-1.19
	c-13.43-1.3-26.12-2.53-36.11-11.06c-27.41-23.38-17.7-85.24-4.72-133.02c8.55-31.5,20.23-63.47,32.57-92.62
	c-1.14,22.27-1.2,44.06-0.59,64.5C651.06,2643.54,659.11,2704.02,668.84,2754.32z M1432.01,2312.94c6.17,66.32,0.12,86-4.43,87.18
	c-0.97,0.25-4.72-0.33-12.24-18.32c-0.34-0.8-0.67-1.63-1.02-2.48c1.82-7.09,3.89-14.35,6.2-21.61
	c6.02-18.92,9.23-38.46,10.12-58.38C1431.14,2304,1431.6,2308.54,1432.01,2312.94z M1211.25,1778.16
	c-12.15-20.62-25.41-39.27-38.82-55.71c23.33,6.11,40.54,16.52,51.37,31.12c12.5,16.86,15.65,37.77,19.28,61.98
	c4.55,30.27,10.21,67.94,36.75,110.85c4.36,7,8.71,14.18,12.91,21.34c46.39,79.04,104.3,177.74,124.65,273.39
	c-19.8-46.49-45.1-88.79-67.89-126.89c-21.93-36.67-46.54-70.54-72.58-106.4c-5.19-7.14-10.46-14.4-15.8-21.81
	C1265.68,1889.2,1237.24,1822.26,1211.25,1778.16z M1255.47,1958.17c-37.34-52.07-78-112.13-118.46-192.82
	c-7.64-15.24-17.61-35.12-26.33-61.24c1.81,0,3.68-0.01,5.59-0.04c4.86,3.48,10.34,7.46,16.53,11.98l0.7,0.51l0.87,0.06
	c10.15,0.67,19.58,1.87,28.26,3.59c14.99,17.68,30,38.17,43.45,61C1230.77,1823.12,1257.74,1885.98,1255.47,1958.17z
	 M1178.44,1702.29c30.89,2.08,62.1,26.29,92.78,71.95c26.94,40.11,52.95,95.84,77.3,165.67c26.86,77.02,47.95,160.42,62.53,234.53
	c-26.25-81.69-73.8-162.73-113.12-229.74c-4.21-7.18-8.56-14.37-12.99-21.47l0,0c-25.89-41.85-31.22-77.29-35.92-108.57
	c-3.76-25-7-46.6-20.4-64.66c-12.87-17.36-33.86-29.14-62.58-35.21c-3.62-4.25-7.25-8.33-10.85-12.24
	C1164.36,1702.13,1172.61,1701.9,1178.44,1702.29z M1145.5,1703c0.56-0.03,1.12-0.05,1.67-0.08c3.06,3.24,6.13,6.6,9.22,10.09
	c-6.56-1.04-13.48-1.81-20.76-2.32c-3.35-2.45-6.49-4.73-9.44-6.87C1132.3,1703.63,1138.75,1703.34,1145.5,1703z M1141.65,1697.18
	c-7.34,0.36-15.46,0.72-23.49,0.86c-4.54-3.25-8.52-6.06-12.01-8.49c-0.32-1.11-0.63-2.22-0.95-3.35
	c-2.19-7.9-4.34-16.62-6.31-26.11C1110.96,1668.52,1125.87,1681.08,1141.65,1697.18z M1064.63,1651.13c0.2-3.35,1.18-4.49,1.87-4.88
	c1.75-0.99,6.99-0.71,16.82,4.3c-2.12,7.61-5.05,13.44-7.9,18.27C1071.4,1664.66,1067.77,1658.71,1064.63,1651.13z M1072.17,1674.03
	c-0.07,0.11-0.14,0.22-0.21,0.33c-0.75,1.17-1.46,2.29-2.12,3.37c-0.61-1.99-1.18-3.91-1.69-5.76c-0.37-1.34-0.71-2.61-1.02-3.82
	C1068.73,1670.38,1070.42,1672.34,1072.17,1674.03z M1074.23,1475.7c1.98,70.6,3.07,109.49,7.78,129.56l0.45,1.88
	c2.1,8.8,5.21,21.78,2.26,37.39c-5.73-2.81-11.32-4.75-15.85-4.75c-2.02,0-3.83,0.38-5.34,1.25c-0.76,0.43-1.43,0.96-2.01,1.58
	c-0.16-0.5-0.32-1-0.47-1.5c-14.65-47.66-11.56-129.29,13.74-203.31C1074.11,1449.8,1073.86,1462.48,1074.23,1475.7z
	 M1076.88,1677.81c1.08,0.71,2.18,1.32,3.3,1.84c0.24,0.12,4.36,2.17,20.81,13.6c0.47,1.59,0.94,3.15,1.41,4.69
	c-12.46-0.45-23.04-1.94-27.73-5.56c-0.78-2.23-1.52-4.4-2.23-6.52C1073.1,1683.82,1074.64,1681.31,1076.88,1677.81z
	 M1090.32,1647.14c0.02,0.14,0.05,0.28,0.07,0.42c-0.05-0.03-0.1-0.05-0.14-0.08C1090.27,1647.36,1090.3,1647.25,1090.32,1647.14z
	 M1091.84,1655.42c2.03,10.49,4.29,20.11,6.62,28.82c-12.32-8.39-15.52-9.92-15.73-10.02c-0.9-0.42-1.79-0.92-2.67-1.49
	c2.99-4.97,6.24-11.17,8.64-19.22C1089.71,1654.11,1090.76,1654.74,1091.84,1655.42z M1094.02,1456.75
	c-7.64,38.72-10.66,74.23-10.73,106.08c-1.21-21.38-2.01-49.85-3.06-87.3c-0.58-20.71,0.36-40.28,2.21-58.2
	c5.22-12.78,11.15-25.22,17.8-37.05c1.16,5.17,2.64,10.22,4.44,15.16c0.88,2.43,1.87,4.87,2.93,7.28
	C1102.17,1420.41,1097.64,1438.43,1094.02,1456.75z M1098.55,1371.22c-4.85,8.17-9.35,16.64-13.49,25.35
	c3.44-23.03,8.14-42.52,12.43-57.18C1096.66,1350.37,1097.01,1361,1098.55,1371.22z M1110.46,1393.75
	c-0.04-0.12-0.09-0.24-0.13-0.36c-2.46-6.75-4.29-13.75-5.51-20.96c10.36-17.16,21.04-31.51,30.48-44.19
	c1.53-2.06,3.02-4.06,4.48-6.03C1128.26,1345.34,1118.48,1369.22,1110.46,1393.75z M1357.6,962.35
	c-5.09,80.26-16.59,143.69-29.13,202.5c-2.81-76.27,6.99-143,11.35-172.69c2.43-16.53,2.47-17.23,1.28-18.76l-0.86-1.06l-1.27-0.13
	c-3.2-0.33-3.86,3.09-4.62,7.06c-0.57,2.97-1.29,7.4-2.18,13.53c-1.7,11.62-3.87,27.98-6.61,48.7
	c-5.03,37.97-11.92,89.97-20.25,144.54c-6.3,41.24-12.18,75.81-16.47,101.05c-2.99,17.59-5.36,31.48-6.72,40.88
	c-1.87,12.86-2.16,17.09,1.49,17.9c3.21,0.71,4.8-1.75,8.93-13.88c2.58-7.56,5.9-18.53,9.59-31.71
	c7.67-27.36,16.1-60.99,22.54-89.98c0.23-1.02,0.45-2.03,0.68-3.05c3.66,36.46,10.68,73.92,22.82,109.72l1.08,3.17
	c10.08,29.49,14.08,43.72,15.31,50.3c-4.63-6.05-12.34-18.82-18.92-30.09c-4.79-10.69-10.91-19.9-14.51-25.16
	c-0.05-0.08-0.1-0.17-0.15-0.25c-0.82-1.39-1.44-2.4-1.88-3.08c-0.54-0.84-2.2-3.39-4.75-1.99l-1.18,0.66l-0.31,1.3
	c-0.34,1.45,0.07,2.05,2.36,5.38c0.29,0.42,0.57,0.83,0.85,1.24c1.57,2.67,3.67,6.35,5.73,9.95c2.96,5.18,5.66,9.85,8.12,14.07
	c7.04,15.44,8.45,27.91,4.16,37.23c-3.92,8.52-13.45,15.97-26.14,20.42c-16.8,5.89-35.58,5.37-49.02-1.37
	c-9.66-4.84-17.14-13.02-22.94-22.66c0.01-4.2-0.05-8.4-0.2-12.49c-1.53-42.17-13.93-88.62-19.14-92.68
	c-0.84-0.65-1.83-0.9-2.81-0.69c-2.54,0.54-3.1,3.33-3.5,6.4c-1.36,10.63-0.64,37.01,5.21,62.35c3.8,16.46,8.86,29.02,14.41,38.62
	c-0.08,9.01-0.52,19.15-1.57,28.18c-2.36,20.34-6.23,21.79-6.27,21.79c-0.02,0-4.83,0.3-15.86-28.93
	c-6.79-17.99-13.46-40.22-18.81-58.09c-2.44-8.15-4.55-15.2-6.19-20.19c-2.25-6.85-3.47-10.63-6.94-9.66
	c-3.13,0.87-2.7,4.76-2.28,8.53c0.38,3.42,1.16,8.23,2.24,13.92c2.44,12.76,6.21,28.71,10.34,43.75
	c6.58,23.98,13.37,43.35,18.23,56.94c-3.8-6.69-8.08-14.46-11.95-21.48c-6.41-11.62-13.03-23.64-18.36-32.62
	c-6.83-11.53-9.9-15.87-12.83-15.87c-0.49,0-0.98,0.12-1.48,0.35c-3.51,1.62-2.23,5.77,1.57,18.08c2.29,7.42,7.61,24.64,5.69,27.82
	c-2.42-0.12-9.68-6.92-14.05-11.03c-9.83-9.22-19.12-17.94-26.19-14.34c-7.17,3.64-6.28,16.99-4.38,34.06
	c0.37,3.28,0.79,7.13,0.88,9.56c-3.85-2.78-11.4-12.2-17.74-26c15.48-49.57,38.18-96.53,67.82-140.15
	c7.23-0.91,14.34-1.91,21.41-2.9c27.49-3.85,40.19-8.12,52.24-17.54c21.9-17.13,28.09-42.46,33.05-62.81
	c3.76-15.41,7.27-40.99,10.66-65.72c2.71-19.8,5.28-38.5,7.57-48.51c10.59-46.35,29.19-133.44,35.46-173.15
	c4.32-27.36,6.49-41.09,4.88-58.39c-0.23-2.53-0.53-5.06-0.87-7.59c3.55-1.03,7.06-2.39,10.5-4.04
	C1360.27,866.86,1361.01,908.46,1357.6,962.35z M1323.63,1187.13c-1.61,7.33-3.23,14.61-4.84,21.87
	c-9.84,44.29-22.43,91.39-30.11,115.53c1.47-9.51,3.63-22.23,6.05-36.45c4.3-25.26,10.18-59.86,16.49-101.15
	c4.11-26.95,7.88-53.26,11.24-77.58C1321.62,1133.67,1321.76,1159.98,1323.63,1187.13z M1239.79,1363.89
	c-4.64-10.79-7.72-22.33-9.75-32.6c-3.97-20.09-4.63-38.47-4.2-48.58c4.8,14.16,12.69,46.49,13.94,81.09
	C1239.79,1363.83,1239.79,1363.86,1239.79,1363.89z M1159.57,1266.71c-0.29-0.6-0.62-1.27-1.08-2c5.24-0.44,10.39-0.97,15.47-1.55
	c-4.2,6.31-8.27,12.7-12.19,19.15C1162.63,1276.92,1162.03,1271.78,1159.57,1266.71z M1280.89,823.17c-0.95-1.77-2.2-2.44-3.09-2.7
	c-3.94-1.13-6.31,2.78-10.24,9.26c-3.58,5.89-8.99,14.79-17.75,24.29c-7.03,7.63-16.66,18.07-21.82,16.39
	c-2.74-0.89-3.41-5.96-4.19-11.82c-1.08-8.09-2.42-18.16-10.32-24.65c-7.98-6.56-21.79-8.38-35.16-4.66
	c-10.88,3.03-18.61,8.97-21.2,16.3c-1.68,4.74-1.4,10.75,0.65,16.31c-1.92,3.25-2.56,6.1-3.11,8.5c-0.67,2.96-1.15,5.11-3.7,7.61
	c-7.03,6.9-22.93,9.13-32.13,1.55c-8.61-7.09-6.36-21.48-4.19-35.39l0.09-0.56c1.5-9.65,4.51-19.08,8.93-28.01
	c10.37-20.93,18.55-34.9,24.72-44.9c13.05-17.95,27.44-43.16,22.26-69.26c-0.63-3.19-1.56-6.4-2.46-9.5
	c-2.55-8.83-4.96-17.17-0.61-24.28c2.74-4.48,8.6-8.93,14.37-8.77c7.43,0.21,13.67,8.43,21.56,18.83l1.57,2.07
	c2.68,3.52,4.43,6.2,7.08,10.25l0.24,0.37c0.74,1.13,1.62,2.48,4.24,6.93c-1.85,0.24-3.41,0.96-4.66,2.41
	c-6.4,7.4,4.58,22.63,26.17,51.16c22.68,29.96,53.65,70.87,43.47,91.1C1282.97,834.32,1282.79,826.72,1280.89,823.17z
	 M1242.61,869.86c3.87-3.36,7.77-7.6,11.62-11.77c9.16-9.94,14.76-19.15,18.46-25.24c1.18-1.94,2.46-4.05,3.43-5.39
	c0.75,3.61,0.53,12.01-2,19.94c-0.36,1.13-0.75,2.21-1.18,3.27C1266.41,855.45,1256.37,861.54,1242.61,869.86z M1265.66,862.77
	c-4.74,5.77-9.73,9.23-11.8,10.54c-5.5,3.46-9.34,4.29-12.72,5.03c-0.54,0.12-1.08,0.23-1.61,0.36c1.46-0.86,3-1.78,4.64-2.77
	l1.01-0.61C1253.36,870.37,1260.12,866.28,1265.66,862.77z M1193.22,844.47c-6.45,0.6-20.96,1.94-30.86,11.64
	c-0.57-3.07-0.46-6.09,0.4-8.51c1.9-5.38,8.31-10.06,17.15-12.52c4.05-1.13,8.17-1.68,12.09-1.68c7.09,0,13.52,1.79,17.66,5.19
	c2.71,2.23,4.44,5.14,5.6,8.34C1211.79,844.76,1202.13,843.64,1193.22,844.47z M1200.07,850.19c-2.96,1.11-6,2.81-8.68,5.46
	c-2.34,2.32-3.51,4.47-4.53,6.37c-1.17,2.16-2.02,3.73-4.45,5.29c-0.23,0.15-5.68,3.61-10.44,2.22c-2.78-0.81-5.45-3.35-7.36-6.98
	c0.07-0.09,0.15-0.18,0.23-0.28c8.23-9.92,22.22-11.21,28.95-11.84C1196,850.23,1198.12,850.17,1200.07,850.19z M827.45,738.45
	c-2.15-0.75-8.68-3.04-26.76,28.13c-0.72,1.24-1.44,2.51-2.16,3.79c1.36-5.76,3.08-12.22,5.21-19.35c9.25-31,23.76-66.79,39.8-98.19
	c1.69-3.31,3.39-6.58,5.1-9.8c0.76,1.45,1.62,2.81,2.58,4.05c4.06,5.23,8.61,6.76,13.02,8.24c2.69,0.9,5.47,1.83,8.43,3.66
	c2.92,1.8,5.32,4.05,7.3,6.66c-7.2,12.97-13.81,25.41-19.63,37.17c-13.25,26.77-23.9,46.55-32.44,61.16
	C832.24,747.8,832.82,740.32,827.45,738.45z M760.66,859.79c-0.71-62.55,8.37-141.89,50.56-214.55
	c33.86-58.3,87.52-109.44,114.88-132.39c-1.2,1.47-2.45,3.01-3.74,4.6c-1.33,1.66-24.68,30.9-52.13,75.67
	c-4.93,0.13-9.02,0.88-13.28,4.1c-6.22,4.69-10.53,12.94-11.83,22.65c-0.72,5.41-0.44,10.77,0.74,15.62
	c-2.56,4.77-5.12,9.64-7.65,14.6c-25.55,50.01-45.35,107.54-49.08,138.26c-7.57,15.44-14.91,32.78-21.39,50.64
	C765.19,846.02,762.83,852.96,760.66,859.79z M761.17,947.15c0.97,8.14,1.91,15.97,2.17,20.87c-3.05-6.29-7.68-19.78-11.74-40.54
	c-0.28-1.44-0.56-2.93-0.85-4.48c1.58-8.14,3.39-16.55,5.49-25.19C757.62,917.47,759.63,934.28,761.17,947.15z M866.38,599.46
	c-5.15,8.55-10.4,17.61-15.66,27.11c-0.04-1.93,0.07-3.91,0.34-5.9c1.09-8.13,4.55-14.93,9.5-18.65
	C862.46,600.58,864.26,599.84,866.38,599.46z M794.87,790.28c3.28-6.65,6.59-12.94,9.89-18.73c11.67-20.5,18.32-26.42,20.49-27.28
	c1.12,4.07-3.94,21.37-9.07,38.64c-13.46,20.27-18.74,22.18-20.09,22.26c-0.17,0.01-0.25,0.02-0.49-0.34
	C794.35,802.93,793.99,798.05,794.87,790.28z M875.81,653.86c-3.55-2.19-6.8-3.28-9.67-4.24c-4.2-1.41-7.24-2.43-10.19-6.23
	c-1.57-2.02-2.8-4.46-3.68-7.16c7.16-13.23,14.36-25.66,21.33-37.12c0.52,0,1.07,0.01,1.63,0.02c4.86,0.06,10.9,0.14,19.15-0.83
	c11.58-1.36,19.9-3.92,27.53-6.59c-19.97,9.22-33.71,18.92-36.73,21.92c-0.42,0.42-1.72,1.71-1.15,3.55l0.41,1.25l1.13,0.58
	c1.55,0.79,1.99,0.63,13.2-3.24c3.5-1.21,7.7-2.66,12.5-4.27c-9.96,16.74-19.46,32.97-28.16,48.47
	C881.07,657.66,878.65,655.61,875.81,653.86z M917.99,600.27c-0.67,1.12-1.34,2.23-2,3.35c-3.94,1.28-7.57,2.5-10.86,3.62
	C908.85,605.06,913.17,602.69,917.99,600.27z M919.98,608.64c6.21-2,13.11-4.14,20.53-6.29c-6.78,4.42-12.9,10.01-17.94,17.03
	c-15.12,21.1-17.4,51.38-14.32,61.02c0.81,2.55,2.03,4.07,3.74,4.66c3.64,1.26,6.19-2.2,9.71-6.98c1.15-1.56,2.45-3.32,3.92-5.15
	c15.68-19.43,46.64-39.48,77.51-37.61c19.83,1.2,34.5,9.43,40.02,12.53c9.68,5.43,17.9,12.1,21.71,16.11
	c-1.71-0.56-3.74-1.29-5.65-1.99c-13.18-4.78-37.7-13.67-65.94-9.54c-0.8,0.12-1.59,0.24-2.36,0.37
	c-19.97-3.78-45.88,13.58-55.44,21.83c-5.18,4.47-6.5,6.62-5.43,8.87c1.28,2.7,4.5,1.87,6.41,1.37c1.89-0.49,4.51-1.31,8.14-2.45
	c4.02-1.26,9.32-2.92,15.88-4.82c-1.57,9.39,0.79,19.84,8.17,25.49c0.46,0.35,0.93,0.68,1.42,0.99c-10.44-1.08-21.41-2.9-33.14-5.84
	c-0.87-0.22-1.72-0.44-2.55-0.65c-8.48-2.17-15.18-3.89-19.99,0.48c-9.71,8.83,0.86,33.27,9.66,50.89
	c10.04,20.11,20.42,40.9,44.92,57.1c1.46,0.97,29.07,18.88,65.57,18.88c9.99,0,20.66-1.35,31.63-4.75
	c28.7-8.9,45.53-27.5,65.02-49.04c7.82-8.65,12.87-16.09,16.86-24.87c3.82-8.41,6.03-18.8,7.29-27.38c2.32,4.2,3.66,8,3.73,14.13
	c0.11,9.3-2.83,13.94-10.68,26.35c-1.48,2.34-3.14,4.96-4.97,7.92c-3.56,4.89-7.01,9.23-9.92,12.88
	c-7.45,9.36-30.12,37.84-71.57,48.88c-9.25,2.47-57.6,13.36-100.88-14.26c-30.04-19.17-54.18-55.23-61.49-91.86
	c-1.26-6.31-2.07-12.94-2.86-19.36c-1.75-14.26-3.42-27.97-9.67-38.32C897.07,647.3,908.22,628.31,919.98,608.64z M1082.03,561.52
	c-0.78,1.63-1.56,3.25-2.36,4.88l-6.9,14.09l11.61-10.55c2.77-2.52,5.47-5.1,8.1-7.73c20.72,2.01,39.77,8.09,48.33,22.47
	c5.08,8.54,7.14,18.77,6.18,24.36c-7.32-1.28-15.5-3.14-24-5.32c-2.58-1.75-4.79-3.35-6.25-4.41c-1.09-0.79-2.04-1.48-2.84-2.04
	c-17.16-12.01-40.72-18.06-70.35-18.09c-1-0.33-1.89-0.61-2.64-0.85c-7.09-2.22-14.22-3.73-21.32-4.65c1.75-2.74,3.46-5.5,5.13-8.28
	C1036.94,563.7,1059.6,560.7,1082.03,561.52z M1028.58,558.82c16.16-28.25,23.25-50.17,30.72-73.28
	c3.27-10.13,6.66-20.6,10.89-31.72c9.55-25.1,23.21-52.94,36.55-74.46c15.85-25.57,24.05-30.91,26.15-30.91
	c0.11,0,0.2,0.01,0.28,0.04c0.06,0.02,5.7,3.13,0.04,42.87c-3.34,23.45-9.95,54.12-17.25,80.05c-8.11,28.8-18.59,57.11-31.21,84.31
	C1063.56,554.61,1042.13,557.01,1028.58,558.82z M1165.01,474.15c3.32,0.32,4.66-3.47,6.05-8.45c1.11-4,2.4-9.81,3.84-17.29
	c2.57-13.42,5.63-32.36,8.61-53.34c3.18-22.45,6-45.19,7.71-62.41c0.9-9.07,1.47-16.25,1.68-21.33c0.29-6.86,0.29-10.77-3.01-11.39
	c-3.32-0.62-4.7,2.7-7.58,11.66c-1.86,5.81-4.24,14.05-7.26,25.19c-3.35,12.35-7.06,26.69-10.74,41.12
	c1.83-41.08,6.93-73.05,14.29-88.88c3.14-6.76,6.72-10.69,10.35-11.38c3.7-0.7,8.87,1.59,14.56,6.44
	c21.43,18.28,50.26,73.98,48.65,131.01c-1.61,56.98-33.24,103.94-50.23,129.18c-9.92,14.74-14.45,21.46-9.75,24.93
	c1.16,0.86,2.67,1.14,4.47,0.83c9.21-1.57,31.78-20.82,47.08-43.28c5.53-8.12,9.32-15.43,12.35-21.3c3.38-6.52,6.3-12.17,8.56-12.17
	c0.03,0,0.05,0,0.08,0c1.95,0.11,3.64,5.49,5.78,12.3c2.27,7.25,5.39,17.19,11.19,29.1c3.33,6.83,6.63,12.45,9.82,17.35
	c-4.36-1.25-7.14-1.98-7.74-2.14c-7.31-2.14-18.77-4.04-31.87-0.9c-5.56,1.33-18.58,4.46-26.97,14.66
	c-11.58,14.08-8.93,35.48-4.69,49.13c-5.48,1.09-9.37,0.54-15.77-0.36c-5.67-0.8-12.72-1.79-23.82-2.07
	c-1.02-0.03-1.98-0.04-2.89-0.04c-4.02,0-7.02,0.21-9.14,0.36c-0.56,0.04-1.07,0.08-1.53,0.1c-3.87,0.23-8.7-0.1-14.21-0.86
	c1.38-7.97-1.66-19.5-6.92-28.35c-9.01-15.16-27.74-22.08-48.31-24.75c8.8-9.41,16.74-19.5,23.71-30.14
	c18.73-28.6,24.95-52.36,36.42-98.3c0.11,4.44,0.25,8.63,0.43,12.49c0.41,9.08,1.01,16.75,1.74,22.19
	C1160.91,470.35,1161.92,473.85,1165.01,474.15z M1163.61,405.15c6.81-26.96,16.73-66.15,22.84-86.67
	c-1.09,14.4-3.75,38.59-7.87,68.48c-5.18,37.56-9.81,63.4-12.75,75.11C1164.5,451.53,1163.4,430.61,1163.61,405.15z M1350.95,572.94
	c-1.89-10.19-0.43-24.39,1.24-40.72c1.06-10.33,2.15-20.97,2.55-32.03c13.87,27.94,20.19,58.84,22.8,85.65
	C1369.15,581.17,1360.06,576.85,1350.95,572.94z M1378.17,593.14c0.01,0.17,0.03,0.35,0.04,0.52c-9.53-2.67-16.23-4.98-19.31-6.95
	c-2.33-1.49-4.11-3.53-5.43-6.05C1362.07,584.49,1370.51,588.67,1378.17,593.14z M1355.67,591.77c3.62,2.31,10.36,4.78,22.95,8.23
	c0.16,2.89,0.28,5.71,0.37,8.45c-8.3-7.12-17.82-11.51-26.66-14.31c-10.86-6.54-22.71-11.14-34.51-13.29
	c-3.11-6.66-6.97-12.12-11.19-17.85c11.24,3.64,25.17,8.51,39.15,14.36C1347.45,583.57,1350.51,588.48,1355.67,591.77z
	 M1326.19,588.96c-1.45-0.15-3.23-0.29-5.32-0.39c-0.12-0.37-0.25-0.74-0.37-1.1C1322.4,587.9,1324.3,588.4,1326.19,588.96z
	 M1296.8,716.9c1.53,5.24,4.28,8.66,5.31,9.95l0.09,0.11c9.34,11.69,26.65,46.56,34.91,82.36c-6.88,0.5-15.17-0.09-23.77-3.4
	c-7.13-2.74-13.26-6.74-18.75-12.23c-33.5-33.49-47.9-70.32-52.91-86.16c7.65,0.78,16.64,0.5,26.64-2.72
	c5.64-1.81,16.96-5.46,23.83-15.61c5.01-2.69,9.5-5.93,13.32-9.31c-1.33,3.29-2.77,6.6-4.33,9.88l-0.22,0.47
	C1298.52,695.27,1293.53,705.74,1296.8,716.9z M1162.4,693.6c0.86,2.98,1.75,6.06,2.34,9c1.52,7.67,1.15,15.33-0.48,22.76
	c-1.21-5.56-3.71-9.58-6.81-14.6c-0.31-0.51-0.64-1.03-0.97-1.57c1.1-11.94,0.72-20.93,0.42-28.31c-0.46-11.17-0.74-17.91,4.6-25.3
	c4.75-6.57,11.17-9.89,13.58-11.14c4.69-2.43,15.69-8.13,24.78-3.44c2.97,1.53,7.06,4.88,9.75,12.14c1.28,3.47,1.22,5.77,1.16,8.21
	c-0.05,1.87-0.1,3.81,0.46,6.09c1.28,5.24,5.39,10.38,11.31,14.55c1.57,6.13,4.8,12.32,9.51,17.85c-1.4-0.31-2.73-0.63-4-0.93
	c-1.44-0.34-2.81-0.67-4.12-0.94c-4.42-7.61-5.59-9.41-6.53-10.85l-0.24-0.37c-2.62-4.01-4.51-6.91-7.33-10.61l-1.56-2.06
	c-8.52-11.22-15.87-20.91-26.18-21.2c-8.53-0.24-16,5.67-19.65,11.64C1156.71,673.89,1159.6,683.91,1162.4,693.6z M1150.91,681.14
	c0.22,5.19,0.46,11.2,0.19,18.49c-3.1-6.17-6.48-14.32-9.79-25.96c-3.5-12.31-4.14-19.32-4.6-24.44c-0.51-5.57-0.87-9.6-4.26-15.77
	c-7.56-13.78-19.43-23.27-32.48-29.86c6.86,2.02,13.81,3.96,20.58,5.71c10.96,7.38,21.91,12.96,28.28,8.21
	c0.68-0.51,1.28-1.12,1.8-1.82c6.51,0.96,12.25,1.39,16.84,1.12c0.48-0.03,1.01-0.07,1.6-0.11c2.63-0.19,6.24-0.44,11.46-0.32
	c10.76,0.27,17.62,1.23,23.13,2.01c6.92,0.97,11.7,1.65,18.63,0.12c0.75,1.85,1.49,3.41,2.16,4.6c0.6,1.07,1.85,3.3,4.2,2.98
	c2.87-0.4,2.88-3.55,2.89-4.74c0-1.17-0.07-2.73-0.15-4.55c-0.02-0.43-0.04-0.86-0.06-1.27c3.81-1.78,6.6-3.94,9.85-6.43
	c1.63-1.26,3.36-2.58,5.38-4c2.98-0.44,5.16-2.15,7.03-4.45c1.5-0.86,3.14-1.74,4.95-2.67c13.33-6.77,26.51-10.51,34.39-11.76
	c5.67-0.9,11.55-1.01,17.51-0.41c0.73,0.83,1.45,1.72,2.17,2.68c-12.62,0.34-30.48,2.86-48.6,12.19
	c-16.68,8.58-38.12,26.5-33.77,35.06c1.51,2.97,4.57,2.95,8.77,2.92c3.71-0.03,9.31-0.07,18.21,1.06
	c6.86,0.87,14.36,2.27,22.71,6.53l0.51,0.26c0.76,0.39,1.22,0.62,1.48,0.8c2.57,1.72,4.68,4.29,6.27,7.36
	c-0.08-0.02-0.16-0.04-0.24-0.06c-10.21-2.45-16.86-4.24-21.72-5.54c-7.85-2.11-10.79-2.9-15.17-2.7
	c-9.36,0.44-21.19,5.15-26.52,14.68c-2.03,3.64-3.04,7.79-3.1,12.16c-2.25-2.33-3.8-4.79-4.38-7.18c-0.37-1.5-0.33-2.9-0.29-4.51
	c0.07-2.63,0.15-5.9-1.53-10.44c-3.35-9.07-8.72-13.38-12.62-15.39c-11.86-6.12-24.78,0.58-30.29,3.44
	c-2.76,1.43-10.09,5.23-15.68,12.95C1150.08,661.15,1150.43,669.53,1150.91,681.14z M967.02,675.76c9.64-2.67,21.47-5.68,35.48-8.68
	c3.67,5.12,5.75,12.01,3.86,18.23c-1.92,6.35-8.33,12.11-16.34,14.69c-6.86,2.21-13.48,1.58-17.73-1.67
	C966.08,693.58,964.75,683.73,967.02,675.76z M964.55,666.65c-0.83,1.29-1.55,2.7-2.15,4.18c-8.3,2.35-14.83,4.39-19.59,5.88
	c-0.24,0.07-0.47,0.15-0.7,0.22c6.36-4.98,16.5-11.57,27.01-15.44C967.29,663.02,965.77,664.74,964.55,666.65z M970.49,668.6
	c1.98-2.61,6.83-7.16,20.35-9.68c2.24,0.55,4.26,1.42,6.07,2.63c0.22,0.15,0.44,0.3,0.67,0.47
	C987.32,664.27,978.29,666.51,970.49,668.6z M1048.26,702.17c0.56-0.01,1.1-0.01,1.62-0.02c-6.83,1.36-15.67,2.61-25.13,2.9
	c-10.45,0.32-21.04,0.65-32.1,0.41c9.6-3.33,17.02-10.32,19.46-18.41c2.21-7.3,0.43-15.06-3.3-21.29
	c19.63-3.99,27.81-4.39,33.17,0.56c8.82,8.13,4.79,26.61,3.34,32.08l-1.01,3.82L1048.26,702.17z M1004.81,660.47
	c-1-1.07-2.06-2.04-3.17-2.9c5.9-0.4,11.56-0.24,16.93,0.28C1014.51,658.5,1009.95,659.39,1004.81,660.47z M1024.93,711.04
	c17.15-0.53,39.38-4.96,42.47-8.47c0.64-0.73,0.95-1.64,0.87-2.55c-0.3-3.18-3.04-3.96-16.25-3.89c1.79-8.51,3.24-22.53-3.61-31.6
	c3.23,1.08,6.17,2.14,8.76,3.08c8.87,3.22,13.32,4.83,15.39,1.13c1.69-3.02-0.64-6.94-7.79-13.11c-5.27-4.55-12.26-9.41-18.68-13.02
	c-5.85-3.28-21.39-12-42.59-13.29c-33.04-1.99-65.93,19.25-82.55,39.83c-1.56,1.93-2.9,3.76-4.09,5.36c-1,1.35-2.16,2.93-3.03,3.93
	c-2.28-6.96-0.95-35.26,13.61-55.57c16.11-22.47,44.84-29.02,69.81-30.25c-0.32,1.37-0.63,2.73-0.94,4.1l-3.04,13.31l8.34-10.81
	c1.74-2.25,3.45-4.53,5.13-6.83c11.81-0.02,22.13,0.96,28.99,1.6c19.66,1.84,71.89,6.72,91.45,42.34c2.78,5.07,3.07,8.21,3.54,13.42
	c0.49,5.36,1.16,12.69,4.81,25.54c5.16,18.16,10.49,28.17,14.78,35.3c-0.08,0.74-0.16,1.49-0.25,2.26
	c-1.47,12.68-4.06,23.38-7.5,30.94c-3.72,8.19-8.46,15.16-15.85,23.33c-18.89,20.88-35.21,38.92-62.34,47.33
	c-48.36,15-90.35-12.24-92.11-13.41c-23.15-15.31-33.17-35.37-42.86-54.77c-16.07-32.17-13.78-41.23-10.99-43.77
	c0.89-0.81,2.18-1.14,3.79-1.14c2.75,0,6.42,0.94,10.66,2.03c0.84,0.22,1.7,0.44,2.59,0.66
	C970.08,712.74,997.96,711.88,1024.93,711.04z M982.33,573.8c6.71-1.64,13.7-3.23,20.62-4.64c-0.29,1.13-0.57,2.26-0.85,3.4
	C995.37,572.55,988.79,572.98,982.33,573.8z M1005.97,581.9c0.26-1.08,0.53-2.16,0.79-3.23c0.77,0.03,1.53,0.06,2.28,0.1
	c-0.68,1-1.37,2-2.06,3C1006.64,581.81,1006.31,581.86,1005.97,581.9z M1016.99,586.62c8.99-0.94,17.51-1.42,25.57-1.45
	c2.15,0.71,4.79,1.59,7.83,2.61c3.03,1.01,6.39,2.14,10.02,3.34c-9.74-1.74-18.29-2.54-24.1-3.08
	C1031.36,587.56,1024.7,586.94,1016.99,586.62z M1065.4,586.44c15.66,1.94,28.98,6.08,39.87,12.42
	C1090.97,594.73,1076.85,590.21,1065.4,586.44z M1231.17,608.84c0.01-6.24,0.55-9.81,1.59-10.62c0.57,0.22,1.77,1.32,2.58,2.06
	c1.03,0.95,2.22,2.04,3.62,2.96c-0.5,0.38-0.98,0.75-1.45,1.11C1235.22,606.11,1233.31,607.58,1231.17,608.84z M1260.11,590.56
	c1.46-2.18,3.15-4.34,5.25-6.17c6.44-5.64,15.23-6.93,22.26-6.93c4.27,0,7.88,0.48,9.92,0.75l0.76,0.1
	c1.37,0.17,2.72,0.56,4.06,1.16c-3.51,0.03-6.98,0.3-10.37,0.84C1284.51,581.49,1272.56,584.77,1260.11,590.56z M1239.45,699.64
	l-0.53-2.34h-1.11c-3.13-3.39-5.6-7.08-7.35-10.82c1.55,0.7,3.17,1.33,4.85,1.9c1.31,0.44,2.62,0.82,3.9,1.15
	c9.3,10.53,26.17,8.51,36.9,5.77c-3.6,1.86-7.1,2.99-9.64,3.81c-10.14,3.26-19.05,3.23-26.62,2.19
	C1239.62,700.39,1239.49,699.83,1239.45,699.64z M1256.97,755.18c-3.21-4.65-6.56-10.58-13.73-23.29
	c-2.87-5.08-6.34-11.23-10.64-18.79c-1.73-3.03-3.24-5.69-4.58-8.01c2.15,0.51,4.52,1.05,7.09,1.51
	C1237.76,715.5,1244.17,733.93,1256.97,755.18z M1238.71,657.19c-6.55,6.14-7.17,16.29-4.08,24.54c-2.44-0.99-4.73-2.16-6.81-3.46
	c-0.92-5.21-0.32-10.2,1.96-14.29c3.18-5.7,9.1-8.82,14.39-10.36C1242.14,654.51,1240.28,655.71,1238.71,657.19z M1255.99,657.85
	c4.21,0.55,7.74,2.49,9.44,5.21c3.41,5.46,0.29,14.35-4.67,18.36c-4.08,3.3-10.63,4.23-18.14,2.72c-4.15-5.96-6.01-16.75,0.2-22.59
	C1245.94,658.63,1250.99,657.21,1255.99,657.85z M1252.82,690.63c4.59-0.51,8.62-2.03,11.71-4.53c7.03-5.68,11.22-17.85,5.99-26.21
	c-1.15-1.84-2.74-3.43-4.65-4.71c4.78,1.28,11.21,2.99,20.69,5.26c2.01,0.48,2.91,0.69,4.13,0.91c1.85,7.49,1.25,16.13-2.38,22.64
	c-0.12,0.22-0.24,0.43-0.37,0.64c-1.95,0.97-3.99,1.87-6.14,2.64C1279.61,688.07,1264.38,693.34,1252.82,690.63z M1218.2,703.22
	c0.56,0,1.21,0.06,1.94,0.16c1.88,3.25,4.24,7.38,7.26,12.68c4.3,7.55,7.77,13.69,10.63,18.77c10.63,18.83,13.15,23.31,19.36,30.7
	c2.62,3.12,4.59,5.22,6.33,7.07c2.88,3.07,4.79,5.1,7.59,9.59c3.78,6.06,6.7,12.68,8.74,19.79c-9.35-17.99-24.07-37.43-37.13-54.69
	c-8.41-11.1-16.34-21.59-21.33-29.74c-6.74-11.01-5.42-13.49-5.09-13.88C1216.77,703.36,1217.37,703.22,1218.2,703.22z
	 M1296.49,679.42c1.43-5.58,1.51-11.65,0.42-17.34c5.99,0.31,10.59-0.55,13.91-1.17c0.4-0.07,0.83-0.15,1.24-0.23
	c-0.38,1.33-0.78,2.66-1.2,4.01C1308.2,668.81,1303.32,674.45,1296.49,679.42z M1309.72,655.01c-3.37,0.63-8.2,1.54-14.5,0.92
	c-2.09-5.7-5.48-10.6-9.95-13.6c-0.56-0.38-1.14-0.67-2.1-1.16l-0.5-0.26c-9.2-4.7-17.64-6.25-24.68-7.14
	c-9.29-1.18-15.14-1.13-19.01-1.11c-1.25,0.01-2.54,0.02-3.31-0.04c0.7-4.2,13.45-17.51,31.1-26.6
	c18.98-9.77,37.62-11.64,49.6-11.57c0.45,1.72,0.86,3.54,1.21,5.47c1.9,10.18,1.52,18.32,1.34,22.23
	c-0.39,8.5-1.98,19.81-5.15,32.29C1312.52,654.48,1311.16,654.74,1309.72,655.01z M1308.34,575.99c-2.92-1.97-6.02-3.23-9.3-3.64
	l-0.73-0.09c-6.06-0.8-24.51-3.23-36.91,7.62c-4.19,3.67-6.8,8.02-9.1,11.86c-1.02,1.71-1.92,3.17-2.77,4.34
	c-1.84,1.08-3.48,2.12-4.95,3.11c-1.82-0.24-3.46-1.74-5.19-3.33c-2.19-2.01-4.9-4.51-8.39-3.4c-4.61,1.46-5.79,7.6-5.86,15.73
	c-3.2-11.85-5.01-29.23,4.42-40.69c7.12-8.65,18.76-11.45,23.74-12.64c4.48-1.08,8.76-1.5,12.7-1.5c6.45,0,12.01,1.12,16.17,2.34
	c0.23,0.06,5.92,1.56,14.79,4.26c1.21,1.68,2.4,3.29,3.56,4.86C1303.37,568.68,1306,572.24,1308.34,575.99z M1022.05,580.11
	c-2.35,0.2-4.73,0.43-7.14,0.69c0.33-0.5,0.67-0.99,1-1.49C1018.02,579.54,1020.07,579.81,1022.05,580.11z M1012.89,572.98
	c-1.55-0.12-3.1-0.22-4.65-0.29c0.4-1.6,0.81-3.21,1.22-4.81c2.54-0.48,5.05-0.92,7.52-1.32
	C1015.64,568.71,1014.28,570.85,1012.89,572.98z M1004.6,562.69c-28.94,5.68-59.39,14.79-67.32,17.38
	c-0.06,0.02-0.12,0.04-0.18,0.06c1.7-2.82,3.4-5.64,5.11-8.47c8.56-14.2,17.42-28.88,26.23-43.67c19.44-32.6,41.3-67.54,58.48-93.47
	c22.23-33.54,32.03-45.16,36.19-49.17c-1.46,5.64-5.69,16.74-10.42,29.15c-4.82,12.65-10.82,28.38-17.33,46.99
	C1023.68,494.83,1013.38,528.74,1004.6,562.69z M939.06,591c23.74-9.05,44.35-12.3,61.55-12.42c-0.35,1.42-0.69,2.84-1.03,4.26
	c-1.05,0.16-2.11,0.33-3.17,0.5c-26.62,4.35-52,11.34-71.78,17.52c1.04-1.73,2.08-3.46,3.12-5.2
	C931.33,594.07,935.11,592.51,939.06,591z M1281.49,788.56c2.79,3.15,5.74,6.28,8.85,9.39c6.09,6.09,12.91,10.53,20.83,13.59
	c9.9,3.81,19.43,4.37,27.21,3.7c0.39,1.93,0.75,3.86,1.08,5.79c-0.71,0.13-1.42,0.24-2.13,0.34c-17.8,2.41-43.38-9.23-49.44-12.15
	C1286.55,801.91,1284.41,795,1281.49,788.56z M1306.88,723.22l-0.09-0.12c-0.83-1.03-3.03-3.78-4.23-7.88
	c-2.62-8.96,1.54-17.71,3.77-22.4l0.23-0.47c3.97-8.36,7.2-16.84,9.78-25.05c1.09-1.79,1.88-3.46,2.35-4.93
	c0.54-1.7,0.66-3.17,0.35-4.41c3.63-13.74,5.43-26.23,5.86-35.52c0.1-2.07,0.24-5.26,0.11-9.3c8.37,22.73,15.33,55.83,20.1,97.09
	c4.18,36.12,7.7,66.53,10.24,94.84c-0.63,0.27-1.27,0.53-1.93,0.77c-1.83,0.7-5.46,1.91-10.28,2.75
	C1334.31,769.32,1315.18,733.59,1306.88,723.22z M1355.56,811.44c0.12-0.04,0.23-0.09,0.34-0.13c0.11,1.28,0.22,2.56,0.32,3.83
	c-3.56,1.84-7.2,3.35-10.9,4.47c-0.29-1.72-0.61-3.44-0.94-5.16C1349.62,813.53,1353.56,812.2,1355.56,811.44z M1386.7,602.14
	c2.38,0.61,4.93,1.26,7.65,1.93c3.82,3.07,7.13,6.23,9.78,9.48c4.02,4.9,5.53,10.69,5.55,10.74c0.53,2.11,1.78,7.05-0.27,12.67
	c-2.35,6.44-3.94,7.35-4.52,7.45c-1.46,0.25-4.95-6.29-7.02-10.19c-2.9-5.43-6.47-12.13-11.49-18.24
	C1386.52,611.67,1386.64,607.05,1386.7,602.14z M1385.94,625.55c2.62,3.98,4.76,8.01,6.62,11.5c4.24,7.95,7.59,14.22,13.29,13.28
	c5.38-0.88,7.95-7.93,9.19-11.31c2.68-7.35,1.06-13.78,0.45-16.19c-0.07-0.29-1.83-7.1-6.72-13.07c-0.76-0.93-1.56-1.84-2.41-2.75
	c1,0.24,2.01,0.48,3.04,0.73c1.88,0.45,5.8,1.38,9.49,4.47c7.58,6.35,10.07,18.42,9.18,26.93c-0.6,5.74-2.47,8.66-3.9,9.42
	c-0.73,0.39-1.71,0.4-2.86,0.42c-2.04,0.03-4.83,0.06-7.02,2.56c-2.57,2.92-2.09,6.68-1.62,10.32c0.06,0.45,0.12,0.92,0.17,1.4
	c0.37,3.1,0.23,6.26,0.08,9.6c-0.11,2.56-0.23,5.21-0.1,7.87c2.57,54.37-12.06,86.45-12.2,86.76c-7.68,16.4-21.91,33.81-38.65,44.38
	c-0.09-1.04-0.18-2.08-0.27-3.13c17.5-9,25.94-24.3,29.76-31.23c3.45-6.26,12.62-22.88,9.83-68.75
	c-2.63-43.36-3.95-65.13-15.11-82.34c-0.09-0.14-0.18-0.28-0.27-0.42C1385.93,625.83,1385.93,625.69,1385.94,625.55z
	 M1382.89,657.07c0.07-0.14,0.2-0.73,0.35-1.75c0.02,0.22,0.02,0.44-0.01,0.65c0.21-1.47,1.11-8.04,1.95-18.83
	c6.68,15.18,7.94,35.93,10.12,71.95c2.68,44.13-5.88,59.65-9.1,65.49c-3.37,6.12-10.63,19.28-25.09,27.61
	c-2.53-27.71-5.98-57.48-10.05-92.66c-3.99-34.52-12.19-85.64-27.61-114.79c1.62,0.13,2.96,0.27,3.95,0.4
	c5.49,0.71,13.66,1.76,22.47,4.46c11.35,6.95,21.54,16.18,29.22,27.01c-0.31,16.7-1.68,27.61-1.8,28.52c0,0.01,0,0.01,0,0.02
	c0,0.02,0,0.03,0,0.03h0c-0.15,1.18,0.31,1.98,0.72,2.44l2.85,3.21L1382.89,657.07z M1379.02,616.73c0.04,0.04,0.08,0.09,0.13,0.13
	c0,0,0,0.01,0,0.02C1379.11,616.83,1379.07,616.79,1379.02,616.73z M1236.36,223.72c24.32,1.63,48.49,24.26,71.82,67.27
	c19.5,35.94,33.06,76.8,38.16,92.18c22.55,67.98,30.7,130.12,33.3,174.3c-5.93-31.02-15.65-53.82-24.77-69.71
	c-1.11-69.39-32.62-130.42-44.04-139.54c-0.58-0.46-2.34-1.86-4.42-1.35c-0.86,0.21-2.05,0.83-2.87,2.56
	c-3.88,8.23,0.66,56.21,22.3,101.12c6.66,13.82,12.92,23.2,17.07,29.41c0.7,1.04,1.34,2.01,1.93,2.91c1.41,2.15,2.76,4.33,4.06,6.54
	c0.02,2.12,0.01,4.25-0.03,6.39c-0.24,12.36-1.46,24.29-2.64,35.83c-1.52,14.85-2.88,28.07-1.72,38.64
	c-16.45-6.71-32.42-11.99-43.87-15.5c-4.31-6.09-8.92-13.21-13.53-22.68c-5.61-11.51-8.64-21.19-10.86-28.27
	c-3.05-9.73-5.06-16.15-11.16-16.5c-6.15-0.37-9.4,5.91-14.31,15.4c-2.96,5.73-6.66,12.86-11.99,20.68
	c-15.21,22.32-35.32,38.29-42,40.52c1.35-3.23,5.81-9.84,10.14-16.27c17.33-25.74,49.59-73.64,51.26-132.36
	c1.74-61.58-29.26-117.4-50.76-135.74c-7.3-6.23-13.88-8.84-19.56-7.77c-12.99,2.45-21.68,24.44-26.56,67.23
	c-2.45,21.49-3.49,44.7-3.67,65.43c-0.09,0.37-0.19,0.74-0.28,1.11c-1.6,6.32-3.08,12.27-4.48,17.89
	c-11.88,47.63-17.85,71.53-36.5,100.01c-7.07,10.79-15.16,21-24.16,30.48c11.87-26.16,21.78-53.29,29.55-80.88
	c7.37-26.17,14.05-57.14,17.42-80.83c5.77-40.56,0.88-47.7-4.03-49.39c-2.61-0.9-10.54-3.62-33.48,33.38
	c-13.53,21.83-27.39,50.04-37.06,75.48c-4.29,11.27-7.7,21.81-10.99,32.01c-7.73,23.89-15.03,46.48-32.56,76.17
	c-3.24,0.47-6.56,1.01-9.92,1.61c8.58-32.88,18.59-65.71,29.9-98c6.49-18.53,12.47-34.22,17.27-46.83
	c4.11-10.8,7.36-19.33,9.29-25.34c2.08-6.5,3.39-11.62-0.16-13.53c-3.08-1.66-6.76-0.01-17.32,13.43
	c-6.54,8.31-15.19,20.52-25.72,36.29c-17.69,26.51-40.53,62.93-61.1,97.43c-8.81,14.77-17.66,29.45-26.22,43.64
	c-2.93,4.85-5.84,9.68-8.73,14.48c-1.45,0.51-2.87,1.02-4.27,1.52c-8.92,3.21-17.35,6.24-30.39,7.77c-6.8,0.8-12.09,0.85-16.42,0.81
	c26.4-42.65,48.49-70.33,49.78-71.94v0l0,0c3.4-4.23,6.54-8.03,9.32-11.38c2.65-3.2,4.74-5.73,6.21-7.6
	c2.04-2.61,3.97-5.07,1.68-7.18c-0.7-0.64-1.66-0.93-2.63-0.78c-3.99,0.6-28.32,20.5-52.55,44.3
	c-24.26,23.83-58.36,61.16-83.04,103.66c-47.18,81.24-53.6,170.44-50.89,236.04c-2.68,9.59-5.01,18.95-7.04,28.03
	c-2.92-21.44-4.92-49.32-3.09-81.57c6.19-109.33,53.35-193.67,71.1-225.43c6.83-12.22,8.1-14.6,7.45-16.85
	c-0.25-0.87-0.81-1.58-1.59-2c-0.66-0.36-1.76-0.68-3.2-0.09c-5.36,2.19-22.51,22.46-39.48,49.14
	c-16.42,25.81-39.39,67.87-55.62,121.63c-24.5,81.2-23.62,156.21-18.57,204.85c5.57,53.59,18.38,94.5,25.5,103.42
	c0.53,0.66,2.12,2.67,4.48,2.51c4.79-0.33,4.87-6.13,5.13-25.34c0.28-20.81,0.75-54.96,7.68-97.5c4.69,20.31,10.1,33.67,13.73,37.18
	c1.17,1.13,2.42,1.64,3.71,1.52c1.04-0.09,1.98-0.61,2.66-1.44c2.26-2.79,1.64-8.94-0.86-29.88c-1.99-16.65-4.77-39.95-5.94-67.48
	c3.45-12.27,7.49-24.93,12.2-37.91c4.76-13.12,10.01-26,15.48-38.04c0.33,2.15,0.9,3.87,1.71,5.11c1.38,2.11,3.46,3.19,5.87,3.05
	c2.68-0.16,6.9-1.73,14.68-11.16c-9.54,32.71-21.29,76.77-25.81,124.29c-6.29,66.11,3.12,123.49,27.96,170.55
	c14.01,26.55,34.14,52.23,48.84,70.99c7.9,10.08,16.73,21.35,18.77,25.99c-7.86-2.42-33.18-21.45-52.06-35.64
	c-9.4-7.06-18.72-14.44-27.72-21.92l-5.76-4.79l0.86,7.44c2.15,18.64,5.48,37.36,9.88,55.64c13.83,57.4,36.23,102.3,49.61,129.13
	c4.31,8.63,8.42,16.89,9.92,21.24c-4.37-3.36-12.36-12.06-18-18.21c-16.35-17.81-22.01-23.32-26.44-20.32
	c-3.26,2.21-4.57,6.78,12.61,40.41c9.18,17.98,19.96,36.94,24.02,44.09c12.54,22.08,25.85,43.9,39.57,64.92
	c-8.64,3.66-17.36,7.56-25.96,11.62c-4.94,2.33-8.53,4.1-11.16,5.38c-5.5,2.7-6.87,3.35-8.66,3.56
	c-17.05,2.06-38.29-36.23-48.17-59.19c-23-53.52-53.04-116.05-68.9-148.56c-9.97-20.44-19.79-40.21-27.65-55.68
	c-3.44-6.76-6.33-12.37-8.38-16.23c-3.59-6.77-4.24-7.99-6.8-7.23l-2.57,0.85l0.47,2.63c13.51,75.29,38.33,146.93,73.77,212.95
	c11.98,22.31,25.29,44.17,39.68,65.17c-10.49-6.75-20.19-14.49-28.95-23.09c-14.62-14.37-23.99-28.51-30.2-37.87
	c-5.87-8.86-8.56-12.91-12.42-11.12c-0.73,0.34-1.73,1.08-2.29,2.68c-2.37,6.72,4.04,30.21,13.45,49.29
	c3.22,6.52,6.49,11.98,9.12,16.37c1.39,2.32,2.9,4.83,3.83,6.66c-3.33-1.47-9.24-5.12-15.32-9.92c-0.05-0.04-0.1-0.08-0.15-0.12
	c-1.32-27.84-25.13-67.11-36.66-81.83c-7.62-9.73-10.91-10.98-13.49-9.87c-1.5,0.64-2.41,2.09-2.7,4.31
	c-1.5,11.38,13.28,61.97,46.87,90.26c-0.07,5.68-1.33,10.23-3.8,13.48c-6.86,9.07-25.06,10.68-52.66,4.67
	c-13.49-18.96-24.33-39.39-32.22-60.73c-12.52-33.84-15.56-64.22-16.86-77.19c-0.22-2.15-0.39-3.85-0.55-5.03
	c-0.17-1.25-0.63-4.57-3.72-4.27l-1.34,0.17l-0.79,1c-0.65,0.83-1.75,2.22-0.54,23.51c0.88,15.44,2.7,33.75,5.13,51.56
	c1.85,13.52,4.05,26.94,6.54,39.95c-8.95-25.81-20.86-63.04-33.11-109.66c-39.59-150.76-50.67-278.9-53-359.84
	c-3.29-114.27,7.57-222.13,12.79-273.96c3.28-32.61,3.41-35.02,1.88-36.87c-0.54-0.66-1.31-1.07-2.15-1.15
	c-3.43-0.32-4.29,3.6-5.4,8.57c-0.85,3.83-1.86,9.33-3.09,16.82c-2.27,13.81-4.94,32.42-7.53,50.42c-2.21,15.34-4.7,32.69-6.85,46.1
	c1.01-28.74,4.97-81.57,13.57-141.29c6.62-45.97,13.61-79.25,17.79-99.13c1.38-6.59,2.48-11.79,3.09-15.29
	c0.72-4.09,1.4-7.95-1.92-8.79c-0.92-0.23-1.87-0.05-2.69,0.51c-4.11,2.83-13.54,31.88-18.86,50.72
	c-7.19,25.41-16.93,65.62-22.55,112.91c-3.81,32.05-5.34,64.63-4.55,96.9c-5.64,2.31-10.85,5.38-15.53,9.12
	c-16.54,13.24-21.31,30.82-22.88,36.59c-6.51,23.97,1.13,44.48,6.71,59.45c9.14,24.53,25.43,47.78,32.83,50.68
	c1.73,0.68,3.02,0.35,3.79-0.04c5.03-2.54,3.25-10.74-13-73.95l-0.23-0.88c-3.55-13.81-6.91-26.85-0.38-34.69
	c3.06-3.67,8.64-7.02,12.06-6.13c3.19,0.82,7.31,6.53,8.8,29.02c1.21,18.17,0.56,42.77-0.19,71.26c-0.51,19.3-1.08,41.17-1.08,63.09
	c0,0.62,0.13,63.06,10.69,165.69c10.53,102.32,34.74,207.56,71.99,312.99c-19.12-15.09-39.73-24.55-61.4-28.16
	c-7.42-1.24-12.54-1.39-16.65-1.51c-3.84-0.11-6.62-0.19-9.68-1.08c-2.83-0.82-5.53-2.24-8.08-4.26
	c7.43-11.71,9.25-30.18,5.22-54.24c-4.96-29.64-18.41-65.78-38.89-104.52l-5.89-11.14l0.24,12.6
	c1.61,85.05,11.87,137.14,31.24,157.97c-0.79,0.85-1.64,1.63-2.53,2.33c-7.38,5.81-18.85,7.13-34.11,3.92
	c-17.91-165.27-32.21-285.91-42.52-358.6c-4.36-30.74-8.09-53.48-11.08-67.58c-3.76-17.71-5.93-20.57-9.38-20.29
	c-0.71,0.06-1.75,0.35-2.65,1.43c-1.02,1.22-2.93,3.48-3.71,25.74c-0.47,13.18-0.44,31.35,0.06,52.55
	c1.05,44.13,4.04,96.65,8.01,140.5c7.25,80.23,20.3,160.57,38.79,238.81c-14.76,13.78-27.45,19.41-37.72,16.76
	c-0.26-0.07-0.52-0.14-0.78-0.22c14.06-43.3-12.35-114.69-28.82-141.98c-7.34-12.17-11.02-13.16-13.64-12.53
	c-2.93,0.7-6.31,4.15-6.48,24.73c-0.34,39.98,11.59,115.52,41.36,132.95c-1.82,4.15-4.16,7.97-7.09,11.32
	c-1.23,1.4-12.3,13.6-22.95,11.48c-24.2-4.79-31.38-77.29-34.08-104.58c-1.25-12.63-1.35-13.66-2.78-14.82l-1.03-0.81l-1.24,0.13
	c-3.19,0.34-3.11,3.49-2.97,8.71c0.09,3.37,0.33,8.14,0.73,14.61c0.72,11.58,1.84,26.44,2.93,40.92
	c-5.13-31.78-11.35-76.99-15.17-124.63c-9.69-120.63,0.04-198.1,36.22-486.32l2.46-19.57c16.26-129.58,50.6-236.14,104.96-325.75
	c31.78-52.39,70.86-98.95,116.15-138.39c49.44-43.06,107.8-78.95,173.44-106.67c48.12-20.32,99.61-33.88,100.12-34.01
	c54.43-14.13,98.34-18.66,124.57-21.36c50.32-5.19,102.82-5.78,144.06-1.62c45.78,4.62,63.05,13.5,63.93,19.7
	c0.36,2.52-1.88,5.67-4.05,8.72c-2.84,3.99-6.05,8.51-3.54,12.98c3.69,6.56,14.19,4.43,27.48,1.74
	C1216.69,225.23,1227.19,223.11,1236.36,223.72z M1348.5,477.52c-0.2-0.29-0.4-0.6-0.6-0.9c-4.05-6.07-10.18-15.24-16.65-28.68
	c-20.03-41.58-24.26-83.15-22.83-93.79c4.12,4.56,13.3,18.92,22.39,42.66C1338.14,416.01,1346.57,444.48,1348.5,477.52z
	 M744.62,923.05c-9.55,49.94-10.1,90.03-10.42,113.43c-0.09,6.57-0.18,12.88-0.5,16.75c-5.22-9.66-16.29-41.77-22.1-92.91
	c-5.59-49.2-7.03-125.12,17.81-207.45c23.74-78.69,63.06-135.01,81.7-156.93c-0.08,0.15-0.17,0.29-0.25,0.44
	c-17.94,32.08-65.58,117.31-71.85,228.02C736.86,862.38,739.91,896.64,744.62,923.05z M733.48,1456.16
	c-16.1-15.37-26.08-34.95-30.87-46.05c-6.78-15.74-9.16-27.56-9.42-32.69c7.87,7.48,29.67,39.74,37.91,68.29
	C732.17,1449.43,732.97,1452.92,733.48,1456.16z M514.09,1431.85c-5.36-6.11-10.01-15.19-13.91-27.17
	c-8.15-25.04-13.06-62.97-14.62-112.87c16.83,33.74,27.94,65.02,32.3,91.07C521.46,1404.43,520.1,1421.34,514.09,1431.85z
	 M407.39,1469.61c-10.12-6.42-19-21.94-25.94-45.5c-5.57-18.91-9.59-42.53-11.03-64.8c-1.39-21.52,0.22-32.33,1.51-35.37
	c5.45,4.14,21.69,32.88,31.94,71.8C408.89,1414.81,414.76,1446.12,407.39,1469.61z M606.58,1481.95
	c-28.98-4.38-60.68-3.73-75.92-3.42c-59.98,1.23-120.1,16.12-178.72,44.25c-15.18-22.17-28.25-45.74-38.88-70.11
	c-56.91-130.44-31.99-255.83-15.5-338.81c0.92-4.62,1.81-9.11,2.66-13.46c1.98-10.14,4.08-20.03,6.3-30.5
	c8.48-39.95,18.08-85.24,21.38-150.84c1.28-25.53,1.48-51.32,0.58-76.68l-0.03-0.3c-10.28-75.03-6.52-150.34,11.2-223.85
	c22.14-91.86,61.21-160.33,90.09-201.59c93.89-134.14,218.99-189.62,272.41-213.31c125.77-55.78,227.1-57.58,325.09-59.33
	c5.15-0.09,10.3-0.15,15.46-0.15c61.92,0,123.76,7.74,168.04,50.25c7.42,7.12,14.17,15.01,20.13,23.51
	c-8.27,0.27-16.87,2.01-24.64,3.59c-8.69,1.76-19.51,3.95-21.06,1.2c-0.65-1.15,1.49-4.15,3.2-6.56c2.72-3.82,5.79-8.15,5.1-13.04
	c-2.12-14.96-38.84-21.76-69.27-24.83c-41.62-4.2-94.57-3.61-145.27,1.62c-26.4,2.72-70.6,7.28-125.47,21.53
	c-0.52,0.14-52.41,13.79-100.95,34.29c-66.23,27.97-125.12,64.2-175.05,107.67c-45.75,39.85-85.23,86.88-117.34,139.8
	c-54.81,90.35-89.42,197.67-105.79,328.11l-2.46,19.57c-36.25,288.7-45.99,366.3-36.25,487.55c3.84,47.79,9.84,90.91,14.21,118.66
	c2.19,13.95,4.51,27.38,6.52,37.8c2.93,15.17,3.4,15.56,4.35,16.33l1.02,0.82l1.27-0.16c2.96-0.37,2.86-3.1,2.72-6.87
	c-0.08-2.3-0.27-5.61-0.57-10.11c-0.4-6.1-0.96-13.75-1.58-22.07c6,27.52,15.18,48.44,30.48,51.47c13.66,2.7,26.24-10.7,28.62-13.41
	c3.31-3.77,5.96-8.08,8.04-12.82c0.47,0.15,0.93,0.29,1.41,0.41c12.71,3.28,27.72-3.25,44.61-19.41l1.24-1.19l-0.4-1.67
	c-18.63-78.5-31.77-159.13-39.05-239.65c-3.91-43.21-6.88-95.1-7.95-138.8c-1-40.94-0.06-61.66,1.1-70.48
	c2.5,8.54,7.11,30.78,15.06,88.07c10.22,73.67,24.13,191.7,41.36,350.79l0.23,2.12l2.08,0.48c18.16,4.2,32.04,2.66,41.25-4.6
	c1.14-0.9,2.22-1.89,3.23-2.96c3.15,2.47,6.51,4.22,10.09,5.26c3.8,1.1,7.22,1.2,11.18,1.32c3.93,0.11,8.82,0.26,15.84,1.43
	c23.81,3.97,46.34,15.39,66.95,33.95l1.97,1.77C616.41,1483.6,611.64,1482.72,606.58,1481.95z M626.02,1485.84l-2.26-6.25
	c-39.22-108.47-64.59-216.82-75.42-322.05c-10.52-102.3-10.65-164.46-10.65-165.08c0-21.84,0.55-42.73,1.08-62.93
	c1.77-67.14,1.99-102.35-13.11-106.24c-6.89-1.77-14.64,3.87-18.17,8.1c-8.5,10.2-4.6,25.36-0.83,40.03l0.23,0.89
	c8.43,32.79,14.79,57.55,15.31,65.65c-5.73-4.91-19.03-23.18-27.51-45.94c-5.59-15-12.54-33.67-6.54-55.78
	c1.44-5.31,5.82-21.46,20.84-33.48c4.73-3.79,10.07-6.8,15.88-8.97l2.01-0.75l-0.06-2.14c-0.9-32.66,0.6-65.68,4.46-98.13
	c6.95-58.49,20.68-108.91,30.01-136.76c-4.25,20.34-10.66,51.93-16.75,94.26c-7.32,50.82-10.75,93.17-12.15,113.89
	c-0.98,14.52-1.57,27.26-1.71,36.84c-0.22,15,0.71,16.2,1.46,17.16c0.56,0.72,1.35,1.17,2.23,1.26c3.39,0.37,4.3-3.79,5.26-8.18
	c0.79-3.61,1.74-8.8,2.89-15.87c2.13-13.07,4.7-30.93,7.19-48.2c0.52-3.62,1.06-7.34,1.6-11.1c-5.5,57.62-12.83,149.77-10.04,246.59
	c4.27,148.4,31.68,279.83,53.92,363.96c12.67,47.91,25,85.77,33.12,109.08c4.7,13.51,8.48,23.56,10.81,29.62
	c0.87,2.25,1.57,4.05,2.14,5.48C636.67,1488.93,631.59,1487.28,626.02,1485.84z M601.33,1573.03c0.77-1.82,1.67-4.06,2.7-6.65
	c4.8-12,17.46-43.62,26.09-43.62c0.12,0,0.23,0.01,0.35,0.02c2.13,0.21,9.5,4.56,14.88,51.51l0.81,7.08l4.5-5.52
	c18.8-23.1,25.59-42.83,20.2-58.64c-3.15-9.22-10.43-16.84-21.78-22.82c-0.05-0.51-0.22-1.13-0.45-2.02
	c-6.48-24.59-11.97-52.65-15.86-81.16c-0.82-5.99-1.52-11.69-2.13-17.08c2.32,9.47,5.32,19.67,9.22,30.22
	c8.21,22.19,19.53,43.42,33.64,63.08l0.67,0.93l1.12,0.25c31.13,6.94,51.27,4.7,59.87-6.66c2.66-3.51,4.17-7.8,4.75-12.61
	c3.07,2.25,6.25,4.36,8.96,5.92c4.8,2.78,9.62,4.96,12.42,2.19c2.97-2.95,0.52-7.03-4.36-15.17c-2.58-4.29-5.78-9.64-8.89-15.94
	c-8.41-17.05-12.56-33.6-13.26-40.98c1.22,1.7,2.69,3.92,4.14,6.11c6.34,9.57,15.92,24.03,30.99,38.84
	c12.36,12.15,26.54,22.62,42.15,31.11l11.47,6.24l-7.6-10.62c-17.32-24.23-33.22-49.78-47.26-75.93
	c-32.12-59.83-55.45-124.33-69.45-192c19.69,38.49,67.03,134.81,98.7,208.47c4.61,10.72,28.3,62.89,52.42,62.89
	c0.66,0,1.32-0.04,1.98-0.12c2.87-0.35,4.81-1.3,10.58-4.14c2.61-1.28,6.17-3.03,11.07-5.34c9.63-4.54,19.4-8.89,29.04-12.91
	l3.34-1.39l-1.99-3.02c-14.35-21.83-28.27-44.57-41.35-67.6c-29.8-52.45-36.28-69.58-37.55-75.08c4.18,3.16,12.13,11.83,17.72,17.92
	c16.39,17.86,22.53,23.84,27.08,20.8c4.53-3.03,1.06-9.97-9.21-30.57c-13.27-26.6-35.47-71.13-49.14-127.86
	c-3.76-15.61-6.73-31.55-8.83-47.48c7.25,5.9,14.67,11.71,22.13,17.32c43.16,32.44,55.57,40.56,60.67,35.84
	c4.5-4.17-0.99-11.65-19.05-34.69c-14.56-18.58-34.49-44.02-48.25-70.09c-24.29-46.01-33.47-102.25-27.3-167.18
	c5.2-54.68,20.15-104.94,30.04-138.21c0.12-0.41,0.24-0.81,0.36-1.21c11.81-17.9,26.62-44.81,44.03-79.99
	c5.32-10.76,11.32-22.09,17.83-33.89c4.31,9.04,5.73,20.68,7.21,32.76c0.8,6.52,1.62,13.27,2.93,19.8
	c7.62,38.15,32.8,75.73,64.15,95.74c45.39,28.97,95.97,17.58,105.65,15c29.62-7.89,50.02-24.22,62.44-36.89
	c-2.4,4.56-4.95,9.53-7.64,14.96c-4.7,9.48-7.89,19.49-9.49,29.75l-0.09,0.56c-2.32,14.85-4.94,31.67,6.31,40.94
	c11.89,9.8,31.01,7.08,40.15-1.9c3.81-3.74,4.63-7.37,5.35-10.57c0.24-1.05,0.47-2.08,0.8-3.13c2.48,3.38,5.58,5.71,8.97,6.7
	c7.09,2.07,14.05-2.09,15.38-2.94c3.72-2.4,5.18-5.1,6.47-7.48c0.91-1.68,1.77-3.27,3.48-4.96c4.83-4.78,11.56-5.54,15.59-6
	c2.03-0.23,4.43-0.5,5.46-2.03c0.53,2.51,0.87,5.06,1.2,7.51c1,7.54,1.95,14.67,8.28,16.73c1.83,0.6,3.71,0.61,5.61,0.17
	c-0.45,0.26-0.88,0.51-1.32,0.76c-10.52,6.08-16.32,9.42-21.94,17.31c-11.23,15.76-9.14,34.24-8.35,41.19l0.05,0.46
	c0.41,3.67,1.09,7.27,2.05,10.81c-0.14,0.01-0.28,0.02-0.43,0.04c-6.52,0.63-14.61,4.31-24.07,10.95c-3.6,2.52-6.68,5-8.64,6.63
	c-1.74,1.45-2.81,2.34-3.46,3l0-0.01c-2.52,2.32-17.32,10.83-44.21,26.28c-16.92,9.72-29.44,16.13-37.72,20.36
	c-5,2.56-8.7,4.45-11.3,6.04c-0.79,0.44-1.51,0.92-2.14,1.42c-2.39,1.77-3.2,3.26-2.86,5.16c-0.03,4.58,5.32,7.93,10.14,10.37
	c0.19,0.13,0.51,0.35,0.81,0.55c7.98,5.33,46.01,20.59,87.23,29.52c68.53,14.84,101.27,3.13,116.67-9.3
	c3.54-2.86,12.93-10.45,12.31-20.4c-0.39-6.24-4.54-11.43-9.37-15.59c3.48,0.5,7.04,0.29,10.3-1.33
	c11.99-5.97,14.23-28.02,8.21-43.75c-6.1-15.94-20.14-23.14-24.3-24.97c-2.71-1.19-9.37-4.12-17.39-4.29
	c-1.15-0.77-2.38-1.6-3.7-2.5c-3.62-2.45-7.31-5.28-11.26-8.64c-6.42-5.46-9.35-8.02-11.45-11.36c-6.76-10.72-8.83-28.1-1.14-36.87
	c2.41-2.75,4.49-3.2,7.93-3.95c3.68-0.8,8.25-1.79,14.64-5.81c3.53-2.22,14.52-9.98,20.75-23.86c4.35-3.32,7.13-6.13,8.7-8.96
	c4.65-8.33,3.67-18.95-0.66-30.67c7.41,3.55,33.18,15.01,52.29,12.41c0.75-0.1,1.49-0.22,2.23-0.35c0.31,2.27,0.57,4.53,0.78,6.77
	c1.53,16.56-0.6,30.04-4.84,56.91c-6.25,39.58-24.81,126.48-35.39,172.75c-2.35,10.27-4.93,29.1-7.66,49.03
	c-3.21,23.44-6.86,50-10.55,65.11c-4.75,19.45-10.66,43.65-30.92,59.51c-11.09,8.68-23.09,12.64-49.38,16.33
	c-16.07,2.25-32.35,4.53-49.71,5.78c-9.44-6.31-32.79-15.03-95.28-25.57l-0.14-0.02c-27.91-4.71-48.08-8.11-61.95-10.01
	c-18.84-2.58-23.68-2.23-24.64,1.77c-0.17,0.72-0.21,1.85,0.59,3.11c4.52,7.12,47.87,22.44,85.91,30.34
	c36.15,7.51,66.26,8.35,93.63,6.54c2.26,1.81,2.93,3.17,3.36,4.05c6.91,14.19-5.26,30.55-23.69,55.31
	c-8.34,11.21-17.64,23.7-26.88,38.33c-1.48-16.22,0.04-33.47,4.56-51.57c0.74-2.97,0.94-3.77,0.18-4.97l-0.7-1.1l-2.72-0.51
	l-1.1,0.93c-2.03,1.71-10.17,22.42-16.87,49.76c-3.78,15.45-7.88,36.09-10.42,60.44c-32.38,80.13-37.49,173.98-21.22,226.9
	c1.01,3.28,2.1,6.38,3.26,9.27c-0.09,7.68,2.69,18.94,7.67,34c-0.24,1.57-0.17,3.15,0.32,4.79c0.57,1.88,1.57,3.51,2.99,4.92
	c3.74,10.64,8.31,22.85,13.55,36.7c16.48,43.6,37.05,98,39.33,136.63c-21.42-16.03-43.77-30.08-66.92-42.06
	c-6.06-3.14-14.34-7.26-23.93-12.03c-25.7-12.79-60.89-30.3-89.03-46.61c-45.73-26.51-45.79-34.56-45.34-35.9
	c0.93-2.76,9.08-3.39,18.11-3.39c4.23,0,8.66,0.14,12.62,0.26c21.55,0.68,45.97,1.45,51.94-12.01c4.8-10.8-5.89-21.53-20.69-36.38
	c-15.75-15.81-37.33-37.47-52.47-70.04c-17.23-37.07-19.3-73.56-20.54-95.36c-0.88-15.58-1.33-23.4-7.01-23.78
	c-6.27-0.41-7.63,8.94-10.4,27.58c-4.51,30.39-12.07,81.25-45.28,101.83c-25.25,15.65-53.96,6.13-87.2-4.89
	c-19.28-6.39-41.13-13.64-64.82-16.71c-46.64-6.04-73.12,10.79-109.69,37.33c-6.49-0.88-13.19-1.55-20.16-1.96
	C568.21,1620.86,589.15,1601.86,601.33,1573.03z M1218.63,985.97c-6.65-1.03-12.92-1.99-21.68,0.6
	c-18.51,5.47-28.39,11.4-37.96,17.14c-6.33,3.79-12.36,7.41-20.8,10.99c-3.84,0.23-7.4,0.37-11.18,0.35
	c-4.82-0.02-7.52-0.35-10.13-0.67c-2.44-0.3-4.76-0.58-8.41-0.58c-0.42,0-0.86,0-1.32,0.01c-0.54,0.01-5.18,0.11-11.12,0.69
	c7.5-3.91,16.95-8.98,28.42-15.58c29.01-16.67,42.25-24.28,45.26-27.06l0.03-0.03c0.82-0.75,19.58-17.72,32.65-18.99
	c0.6-0.06,1.17-0.1,1.72-0.13c3.93,10.78,10.5,20.92,19.64,30.27c1.4,1.44,2.83,2.79,4.26,4.08
	C1224.61,986.89,1221.6,986.42,1218.63,985.97z M1235.33,992.98c11.08,8.05,21.99,12.28,29.27,15.09c1.44,0.56,2.96,1.15,4.26,1.69
	c-4.13,0.36-11.32,0.38-19.75,0.41c-8.51,0.02-19.11,0.06-32.44,0.36c-28.36,0.66-42.03,1.53-48.6,1.95
	c-5.29,0.34-9.83,0.68-13.89,1c2.77-1.56,5.35-3.11,7.91-4.64c9.67-5.8,18.79-11.27,36.57-16.53c3.5-1.04,6.54-1.4,9.43-1.4
	c3.27,0,6.33,0.47,9.64,0.98C1222.66,992.66,1228.14,993.51,1235.33,992.98z M1107.26,1019.8c4.01-0.07,6.27,0.21,8.89,0.53
	c1.34,0.16,2.77,0.34,4.52,0.47c-21.17,5.95-39.78,6.34-45.9,4.89c0.47-0.3,1.02-0.63,1.65-0.99
	C1081.76,1022.43,1093.47,1020.04,1107.26,1019.8z M1135.35,1022.3c1.47-0.56,2.88-1.12,4.23-1.68c3.23-0.21,6.65-0.48,10.54-0.79
	c5.17-0.41,11.04-0.88,18.33-1.35c6.53-0.42,20.12-1.29,48.36-1.94c13.27-0.31,23.83-0.34,32.32-0.36
	c7.61-0.02,13.27-0.04,17.45-0.26c1.06,1.08,2.75,2.15,4.74,3.41c5.87,3.72,16.81,10.65,17.29,18.49
	c0.43,6.86-7.22,13.04-10.1,15.36c-26.05,21.04-75.08,16.02-111.63,8.11c-41.3-8.95-78.42-24.13-85.17-28.64
	c-0.14-0.09-0.29-0.19-0.42-0.28C1094.15,1032.83,1114.95,1030.01,1135.35,1022.3z M1276.89,1013.02c0.36-0.51,0.6-1.1,0.73-1.78
	c0.84-4.23-3.56-5.93-10.85-8.76c-5.77-2.23-13.93-5.4-22.53-10.75c3.07-0.64,4.87-1.27,6.28-1.78c1.79-0.64,2.78-0.99,5.52-1
	c11.79-0.05,20,6.76,26.01,11.73c4.65,3.84,8.67,7.15,12.59,4.68c1.92-1.21,3.02-3.46,3.25-6.7c0.73-10.01-6.81-29.27-17.26-38.19
	c-1.56-1.33-2.38-1.98-4.98-3.76c0.53,0.22,0.98,0.42,1.35,0.58c3.62,1.59,15.84,7.85,21.11,21.62c5.35,13.98,2.69,32.27-5.28,36.23
	C1288.29,1017.42,1281.74,1015.11,1276.89,1013.02z M1276.74,965.05c8.1,6.91,14.69,22.22,15.18,31.28c0.13,2.41-0.23,3.47-0.4,3.82
	c-1.14-0.36-3.72-2.5-5.65-4.08c-6.32-5.22-15.87-13.11-29.73-13.11c-0.04,0-0.08,0-0.12,0c-3.77,0.01-5.5,0.63-7.51,1.34
	c-1.79,0.63-4.01,1.42-8.99,2.17c-0.84,0.13-1.65,0.23-2.44,0.32c-3.05-2.33-6.09-4.98-9.04-8c-7.85-8.04-13.66-16.66-17.38-25.77
	c3.34,0.54,5.73,1.27,9.1,2.3l1.59,0.49c9.11,2.77,14.61,4.44,21.11,3.4c3.49-0.56,5.24-1.58,6.94-2.57
	c1.19-0.7,2.32-1.35,4.33-1.99c2.19-0.69,4.37-1.03,6.49-1.11c2.47,1.67,4.51,3.04,6.21,4.18
	C1274.16,962.93,1274.63,963.24,1276.74,965.05z M1251.92,948.94c-2.65,0.84-4.26,1.78-5.55,2.53c-1.49,0.87-2.48,1.45-4.85,1.83
	c-5.13,0.82-9.85-0.62-18.43-3.22l-1.57-0.48c-4.12-1.26-7.1-2.18-12.1-2.8c-0.04,0-0.39-0.04-0.98-0.07
	c-1.1-3.72-1.87-7.51-2.3-11.37l-0.05-0.47c-0.72-6.33-2.62-23.15,7.28-37.04c4.26-5.98,8.68-8.97,16.5-13.54
	c-9.79,11.3-7.36,31.18,0.67,43.92c2.68,4.26,6.22,7.27,12.64,12.73c3.41,2.9,6.63,5.42,9.8,7.67
	C1252.63,948.72,1252.28,948.82,1251.92,948.94z M1140.89,1259.8c-24.41,0.98-51.17-0.42-82.48-6.92
	c-34.76-7.22-66.95-18.94-78.12-24.98c11.22,0.63,39.44,5.39,76,11.55l0.14,0.02c38.84,6.55,66.61,13.12,82.55,19.53
	C1139.64,1259.27,1140.28,1259.54,1140.89,1259.8z M1028.91,1820.46c9.57,4.76,17.84,8.88,23.85,11.99
	c24.23,12.54,47.57,27.38,69.88,44.41c-0.13,15.41-3.82,27.66-12.76,34.74c-39.58,31.32-162.99-50.77-215.69-85.83
	c-41.2-27.4-70.38-51.45-96.12-72.67c-42.71-35.19-76.44-62.99-141.53-88.25c-27.86-10.81-54.63-21.2-86.29-26.55
	c32.93-23.62,58.21-38.15,100.46-32.67c23.12,2.99,43.75,9.83,63.7,16.45c34.67,11.5,64.61,21.43,92.25,4.3
	c35.58-22.05,43.38-74.63,48.05-106.05c1.21-8.14,2.55-17.18,3.96-21.01c0.76,3.28,1.14,10.07,1.52,16.67
	c1.26,22.23,3.37,59.44,21.09,97.55c15.59,33.53,37.6,55.62,53.67,71.75c13.11,13.16,22.58,22.67,19.46,29.71
	c-4.34,9.77-27.59,9.03-46.27,8.45c-18.89-0.6-33.82-1.07-36.6,7.21C886.34,1746.1,935.81,1774.13,1028.91,1820.46z M362.43,1686.88
	c48.64-28.48,101.02-44.3,152.4-46.14c-23.19,9.28-49.45,16.49-77.16,24.11c-24.95,6.85-51.08,14.03-77.37,23.29
	C361,1687.72,361.72,1687.3,362.43,1686.88z M152.33,1897.35c15.89-65.95,66.57-116.64,72.3-122.21
	c27.31-26.53,57.05-45.78,87.51-60.6c-31.4,25.6-58.37,56.01-78.35,88.74c-1.47,2.41-2.9,4.82-4.29,7.24
	c-19.29,17.95-40.53,42.34-57.17,73.48c-12.55,23.49-20,46.16-24.41,68.53C146.38,1934.74,147.87,1915.87,152.33,1897.35z
	 M219.87,1828.54c-25.27,50.84-35.58,102.52-42.74,138.44c-2.79,14.02-5,25.09-7.42,32.77c-2.98,9.46-5.16,9.79-5.57,9.72
	c-0.44-0.04-4.45-0.87-9.17-17.98c-1.75-6.34-3.12-13.16-4.16-18.95c3.56-28.07,11.1-56.3,26.82-85.71
	C190.03,1863.62,205.06,1844.23,219.87,1828.54z M309.51,1773.89c-24.78,26.19-46.83,58.98-65.53,97.46
	c-21.8,44.86-38.56,96.11-49.81,152.32c-24.12,120.54-2.1,221.91,8.48,270.62c2.58,11.89,5.04,23.22,5.08,27.82
	c-5.71-5.83-19.61-34-32.96-81.05c-9.84-34.7-26.43-105.34-26.97-188.66c-0.13-20.43-0.26-40.45,1.13-60.43
	c4.17,15.69,8.85,22.96,14.7,23.47c9.8,0.82,13.2-16.25,19.38-47.29c7.9-39.61,19.64-98.54,51.25-153.86
	c7.69-7.12,15.06-13.18,21.66-18.22c25.99-19.85,51.7-32.58,65.64-36.4c0.54-0.15,1.73-0.49,3.49-1
	C319.75,1763.47,314.57,1768.55,309.51,1773.89z M394.36,1730.63c-16.05,5.95-30.01,10.59-42.68,14.17
	c19.69-14.16,40.77-24.87,63.06-32.02c11.89-3.81,26.04-7.21,42.28-9.16C438.79,1712.72,418.14,1721.8,394.36,1730.63z
	 M471.1,1696.33c-22.97,1.38-42.51,5.7-58.2,10.73c-27.56,8.84-53.32,22.99-76.91,42.2c-4.52,1.3-8.26,2.38-11.06,3.2
	c-2.57,0.75-4.29,1.24-4.96,1.43c-13.44,3.68-39.24,15.69-67.7,37.42c-2.42,1.85-4.94,3.83-7.55,5.96
	c23.4-35.46,55.11-67.78,91.6-93.55c34.76-14.35,69.89-24,102.93-33.08c33.33-9.15,64.59-17.74,91.16-30.02
	c8.45,0.17,16.52,0.71,24.27,1.58c-0.11,0.08-0.22,0.16-0.33,0.24C532.1,1658.68,506.46,1677.39,471.1,1696.33z M723.4,2546.06
	c-16.35-17.61-13.38-49.05-8-72.33c3.53-15.3,9.24-32,16.33-48.18c0.42,11.55,0.75,24.95,1.11,39.38
	c0.48,19.59,0.22,35.55,0.09,43.22c-0.05,3.19-0.07,4.63-0.04,5.26c0.67,14.41,1.43,28.31,2.24,41.56
	C730.62,2552.53,726.63,2549.54,723.4,2546.06z M757.02,2714.8c0.08,4.29,0.16,8.44,0.22,12.29c-4.49-31.04-10.92-91.45-15.5-162.6
	c5.16,1.83,10.67,3.1,16.34,3.78c-0.95,22.69-1.57,47.39-1.71,74.15C756.22,2671.57,756.68,2696.56,757.02,2714.8z M758.35,2562.16
	c-5.97-0.76-11.75-2.22-17.03-4.32c-0.9-14.54-1.73-29.5-2.44-44.72c-0.02-0.47,0.01-2.42,0.05-4.88c0.13-7.71,0.39-23.75-0.1-43.49
	c-0.55-22.2-0.99-38.79-1.59-51.11c3.77-7.7,7.81-15.17,12.05-22.18c13.39-22.15,22.08-28.47,23.95-27.96
	c0.18,0.12,1.76,1.49,1.25,12.89c-0.4,8.81-1.9,21.81-3.8,38.27C766.93,2447.26,761.32,2495.92,758.35,2562.16z M868.09,2407.4
	c-4.98,38.36-12.96,70.23-23.72,94.71c-12.99,29.56-30.13,48.49-50.93,56.25c-9.2,3.43-19.3,4.8-29.11,4.32
	c2.96-66.17,8.57-114.79,12.33-147.34c4.78-41.44,6.39-55.4-1.82-57.63c-8.64-2.34-21.44,15.37-30.67,30.64
	c-2.63,4.35-5.19,8.87-7.65,13.51c-1.25-15.56-3.22-20.89-7.13-22.15c-4.97-1.6-11.5,3-20.56,14.5
	c-7.67,9.73-16.9,24.15-26.71,41.72c-7.33,13.13-15.48,28.96-23.74,46.54c0.86-8.26,1.89-16.5,3.12-24.67
	c11.81-78.68,38.87-135.48,80.43-168.83c39.23-31.48,82.32-35.42,130.9-34.93c0.04,0.71,0.07,1.4,0.1,2.08
	C876.16,2325.34,872.08,2376.59,868.09,2407.4z M1186.31,2133.77c-27.05,33.12-54.12,54.07-64.5,61.54
	c-35.41,25.48-72.97,41.4-114.85,48.69c-36.98,6.43-72.3,5.51-106.47,4.61c-7.38-0.19-14.7-0.39-21.97-0.5
	c-4.49-82.02-19.47-166.28-42.38-238.12c-20.96-65.74-48.65-122.39-82.29-168.37c-41.43-56.63-92.25-97.49-151.05-121.43l-0.25-0.1
	c-45.03-18.33-84.76-24.43-118.17-24.2c30.38-17.12,53.32-33.87,73.5-48.61c1.84-1.35,3.66-2.67,5.45-3.98
	c33.75,4.92,61.77,15.79,91.03,27.15c64.19,24.91,97.59,52.44,139.88,87.29c25.86,21.31,55.17,45.46,96.62,73.03
	c27.65,18.39,73.92,49.17,117.4,70.23c52.04,25.2,86.5,30.21,105.33,15.31c9.62-7.61,14.07-19.78,14.92-34.88
	c21.23,16.7,41.49,35.41,60.67,56.02c20.73,22.28,40.51,47.14,59.16,74.33C1238.14,2054.85,1217.34,2095.79,1186.31,2133.77z
	 M1250.11,2003.77c-17.88-25.64-36.78-49.19-56.53-70.42c-20.46-21.99-42.15-41.84-64.92-59.43
	c-0.66-39.57-21.81-95.52-39.95-143.49c-3.93-10.41-7.77-20.55-11.17-29.97c6.54,2.28,15.66,3.3,26.79,3.57
	c9,27.49,19.39,48.21,27.31,64.01c42.26,84.28,84.69,146.08,123.35,199.75c-0.42,6.29-1.07,12.65-1.97,19.06
	C1252.23,1992.52,1251.26,1998.17,1250.11,2003.77z M1394.73,2322.09c-20.68-64.01-51.93-160.73-104.5-254.22
	c-11.28-20.06-23.11-39.19-35.45-57.31c1.71-7.56,3.11-15.19,4.19-22.87c0.58-4.16,1.06-8.29,1.45-12.39
	c3.93,5.43,7.81,10.78,11.66,16.07c25.97,35.75,50.5,69.52,72.29,105.96c26.96,45.08,57.46,96.08,78.03,152.86
	c4.7,36.46,3.1,72.12-7.59,105.71c-1.22,3.83-2.63,8.59-4.1,13.95C1406.06,2357.16,1400.88,2341.11,1394.73,2322.09z
	 M1221.91,2738.25c-21.37,10.87-38.32,14.34-46.5,9.52c-15.6-9.2-9.56-59.88,4.47-105.19c5.55-17.92,12.07-34.27,18.36-46.04
	c6.96-13.02,12.2-17.6,14.65-17.6c0.04,0,0.08,0,0.13,0c0.91,0.06,3.33,1.2,6.19,10.4c2.24,7.21,4.03,16.97,5.92,27.29
	c4.78,26.07,9.73,53.02,24.27,55.77c0.64,0.12,1.29,0.18,1.93,0.18c17.83,0,37.92-45.61,66.11-114.28
	c10.4-25.35,20.23-49.29,29.13-66.95c12.77-25.34,18.27-26.33,19.63-26.02c5.43,1.18,9.91,25.87,7.66,63.68
	c-2.45,41.27-12.46,72.08-24.91,98.89C1303.22,2684.74,1253.88,2721.98,1221.91,2738.25z M1430.62,2519.31
	c-10.95,41.01-29.01,94.77-49.53,147.51c-8.77,22.54-15.72,39.14-21.31,52.47c-12.99,31.02-18.37,43.86-21.54,70.94
	c-7.31,62.43,9.81,112.26,18.04,136.21c1.17,3.41,2.37,6.89,3.13,9.46c-15.36-12.62-71.69-81.17-63.41-165.38
	c3.9-39.68,20.02-68.67,37.09-99.36c7.18-12.9,14.44-25.96,21.04-40.1c2.38-2.96,4.74-5.98,7.1-9.04
	c29.1-37.9,63.91-94.03,80.85-161.74C1441.57,2470.73,1438.81,2488.64,1430.62,2519.31z M1444.85,2409.41
	c-1,10.32-2.49,20.44-4.38,30.34c-5.08-1.12-10.52,3.39-16.25,8.14c-4.84,4.01-10.86,9-14.12,7.51c-7.3-3.35-5.98-31.94,1.87-66.37
	c6.02,13.17,11.12,18.45,17.11,16.9c6.33-1.63,9.85-10.84,11.08-28.96c1.07-15.78,0.34-37.51-2.18-64.58
	c-0.48-5.18-1.03-10.56-1.65-16.12C1444.92,2331.94,1448.71,2369.66,1444.85,2409.41z"/>
</svg>
