<?xml version="1.0" encoding="utf-8"?>
<!-- Generator: Adobe Illustrator 24.2.3, SVG Export Plug-In . SVG Version: 6.00 Build 0)  -->
<svg version="1.1" id="Layer_1" xmlns="http://www.w3.org/2000/svg" xmlns:xlink="http://www.w3.org/1999/xlink" x="0px" y="0px"
	 viewBox="0 0 245.91 245.91" style="enable-background:new 0 0 245.91 245.91;" xml:space="preserve">
<style type="text/css">
	.st0{fill:#AB97B7;}
	.st1{fill:#FFFFFF;}
</style>
<g>
	<circle id="Ellipse_12" class="st0" cx="122.96" cy="122.96" r="46"/>
	<g id="Group_9" transform="translate(-611.423 -245.56)">
		<path id="Path_14" class="st1" d="M745.88,395.77h-23c-8.7-0.01-15.75-7.06-15.76-15.76v-23c0.01-8.7,7.06-15.75,15.76-15.76h23
			c8.7,0.01,15.75,7.06,15.76,15.76v23C761.63,388.71,754.58,395.76,745.88,395.77z M722.88,346.74
			c-5.67,0.01-10.26,4.6-10.27,10.27v23c0.01,5.67,4.6,10.26,10.27,10.27h23c5.67-0.01,10.26-4.6,10.27-10.27v-23
			c-0.01-5.67-4.6-10.27-10.27-10.27L722.88,346.74z"/>
		<path id="Path_15" class="st1" d="M734.38,382.31c-7.62,0-13.8-6.18-13.8-13.8c0-7.62,6.18-13.8,13.8-13.8
			c7.62,0,13.8,6.18,13.8,13.8v0C748.17,376.13,742,382.31,734.38,382.31z M734.38,359.3c-5.09,0-9.21,4.13-9.21,9.21
			s4.13,9.21,9.21,9.21s9.21-4.13,9.21-9.21c0,0,0,0,0,0C743.59,363.43,739.47,359.31,734.38,359.3L734.38,359.3z"/>
		<circle id="Ellipse_3" class="st1" cx="748.45" cy="354.04" r="3.22"/>
	</g>
</g>
</svg>
